<svg width="338" height="70" viewBox="0 0 338 70" fill="none" xmlns="http://www.w3.org/2000/svg">
<path d="M89.376 46.384C87.648 46.384 86.0373 46.1067 84.544 45.552C83.072 44.976 81.792 44.1653 80.704 43.12C79.616 42.0747 78.7627 40.848 78.144 39.44C77.5467 38.032 77.248 36.4853 77.248 34.8C77.248 33.1147 77.5467 31.568 78.144 30.16C78.7627 28.752 79.616 27.5253 80.704 26.48C81.8133 25.4347 83.104 24.6347 84.576 24.08C86.048 23.504 87.6587 23.216 89.408 23.216C91.3493 23.216 93.0987 23.5573 94.656 24.24C96.2347 24.9013 97.5573 25.8827 98.624 27.184L95.296 30.256C94.528 29.3813 93.6747 28.7307 92.736 28.304C91.7973 27.856 90.7733 27.632 89.664 27.632C88.6187 27.632 87.6587 27.8027 86.784 28.144C85.9093 28.4853 85.152 28.976 84.512 29.616C83.872 30.256 83.3707 31.0133 83.008 31.888C82.6667 32.7627 82.496 33.7333 82.496 34.8C82.496 35.8667 82.6667 36.8373 83.008 37.712C83.3707 38.5867 83.872 39.344 84.512 39.984C85.152 40.624 85.9093 41.1147 86.784 41.456C87.6587 41.7973 88.6187 41.968 89.664 41.968C90.7733 41.968 91.7973 41.7547 92.736 41.328C93.6747 40.88 94.528 40.208 95.296 39.312L98.624 42.384C97.5573 43.6853 96.2347 44.6773 94.656 45.36C93.0987 46.0427 91.3387 46.384 89.376 46.384ZM109.371 46.256C107.536 46.256 105.904 45.872 104.475 45.104C103.067 44.336 101.947 43.2907 101.115 41.968C100.304 40.624 99.899 39.0987 99.899 37.392C99.899 35.664 100.304 34.1387 101.115 32.816C101.947 31.472 103.067 30.4267 104.475 29.68C105.904 28.912 107.536 28.528 109.371 28.528C111.184 28.528 112.806 28.912 114.235 29.68C115.664 30.4267 116.784 31.4613 117.595 32.784C118.406 34.1067 118.811 35.6427 118.811 37.392C118.811 39.0987 118.406 40.624 117.595 41.968C116.784 43.2907 115.664 44.336 114.235 45.104C112.806 45.872 111.184 46.256 109.371 46.256ZM109.371 42.16C110.203 42.16 110.95 41.968 111.611 41.584C112.272 41.2 112.795 40.656 113.179 39.952C113.563 39.2267 113.755 38.3733 113.755 37.392C113.755 36.3893 113.563 35.536 113.179 34.832C112.795 34.128 112.272 33.584 111.611 33.2C110.95 32.816 110.203 32.624 109.371 32.624C108.539 32.624 107.792 32.816 107.131 33.2C106.47 33.584 105.936 34.128 105.531 34.832C105.147 35.536 104.955 36.3893 104.955 37.392C104.955 38.3733 105.147 39.2267 105.531 39.952C105.936 40.656 106.47 41.2 107.131 41.584C107.792 41.968 108.539 42.16 109.371 42.16ZM132.612 28.528C133.977 28.528 135.193 28.8053 136.26 29.36C137.348 29.8933 138.201 30.7253 138.82 31.856C139.438 32.9653 139.748 34.3947 139.748 36.144V46H134.756V36.912C134.756 35.5253 134.446 34.5013 133.828 33.84C133.23 33.1787 132.377 32.848 131.268 32.848C130.478 32.848 129.764 33.0187 129.124 33.36C128.505 33.68 128.014 34.1813 127.652 34.864C127.31 35.5467 127.14 36.4213 127.14 37.488V46H122.148V28.784H126.916V33.552L126.02 32.112C126.638 30.96 127.524 30.0747 128.676 29.456C129.828 28.8373 131.14 28.528 132.612 28.528ZM150.065 46.256C148.593 46.256 147.174 46.0853 145.809 45.744C144.465 45.3813 143.398 44.9333 142.609 44.4L144.273 40.816C145.062 41.3067 145.99 41.712 147.057 42.032C148.145 42.3307 149.211 42.48 150.257 42.48C151.409 42.48 152.219 42.3413 152.689 42.064C153.179 41.7867 153.425 41.4027 153.425 40.912C153.425 40.5067 153.233 40.208 152.849 40.016C152.486 39.8027 151.995 39.6427 151.377 39.536C150.758 39.4293 150.075 39.3227 149.329 39.216C148.603 39.1093 147.867 38.9707 147.121 38.8C146.374 38.608 145.691 38.3307 145.073 37.968C144.454 37.6053 143.953 37.1147 143.569 36.496C143.206 35.8773 143.025 35.0773 143.025 34.096C143.025 33.008 143.334 32.048 143.953 31.216C144.593 30.384 145.51 29.7333 146.705 29.264C147.899 28.7733 149.329 28.528 150.993 28.528C152.166 28.528 153.361 28.656 154.577 28.912C155.793 29.168 156.806 29.5413 157.617 30.032L155.953 33.584C155.121 33.0933 154.278 32.7627 153.425 32.592C152.593 32.4 151.782 32.304 150.993 32.304C149.883 32.304 149.073 32.4533 148.561 32.752C148.049 33.0507 147.793 33.4347 147.793 33.904C147.793 34.3307 147.974 34.6507 148.337 34.864C148.721 35.0773 149.222 35.248 149.841 35.376C150.459 35.504 151.131 35.6213 151.857 35.728C152.603 35.8133 153.35 35.952 154.097 36.144C154.843 36.336 155.515 36.6133 156.113 36.976C156.731 37.3173 157.233 37.7973 157.617 38.416C158.001 39.0133 158.193 39.8027 158.193 40.784C158.193 41.8507 157.873 42.8 157.233 43.632C156.593 44.4427 155.665 45.0827 154.449 45.552C153.254 46.0213 151.793 46.256 150.065 46.256ZM169.465 46.256C167.63 46.256 165.998 45.872 164.569 45.104C163.161 44.336 162.041 43.2907 161.209 41.968C160.398 40.624 159.993 39.0987 159.993 37.392C159.993 35.664 160.398 34.1387 161.209 32.816C162.041 31.472 163.161 30.4267 164.569 29.68C165.998 28.912 167.63 28.528 169.465 28.528C171.278 28.528 172.899 28.912 174.329 29.68C175.758 30.4267 176.878 31.4613 177.689 32.784C178.499 34.1067 178.905 35.6427 178.905 37.392C178.905 39.0987 178.499 40.624 177.689 41.968C176.878 43.2907 175.758 44.336 174.329 45.104C172.899 45.872 171.278 46.256 169.465 46.256ZM169.465 42.16C170.297 42.16 171.043 41.968 171.705 41.584C172.366 41.2 172.889 40.656 173.273 39.952C173.657 39.2267 173.849 38.3733 173.849 37.392C173.849 36.3893 173.657 35.536 173.273 34.832C172.889 34.128 172.366 33.584 171.705 33.2C171.043 32.816 170.297 32.624 169.465 32.624C168.633 32.624 167.886 32.816 167.225 33.2C166.563 33.584 166.03 34.128 165.625 34.832C165.241 35.536 165.049 36.3893 165.049 37.392C165.049 38.3733 165.241 39.2267 165.625 39.952C166.03 40.656 166.563 41.2 167.225 41.584C167.886 41.968 168.633 42.16 169.465 42.16ZM182.242 46V22.256H187.234V46H182.242ZM200.411 46.256C198.448 46.256 196.72 45.872 195.227 45.104C193.755 44.336 192.613 43.2907 191.803 41.968C190.992 40.624 190.587 39.0987 190.587 37.392C190.587 35.664 190.981 34.1387 191.771 32.816C192.581 31.472 193.68 30.4267 195.067 29.68C196.453 28.912 198.021 28.528 199.771 28.528C201.456 28.528 202.971 28.8907 204.315 29.616C205.68 30.32 206.757 31.344 207.547 32.688C208.336 34.0107 208.731 35.6 208.731 37.456C208.731 37.648 208.72 37.872 208.699 38.128C208.677 38.3627 208.656 38.5867 208.635 38.8H194.651V35.888H206.01L204.091 36.752C204.091 35.856 203.909 35.0773 203.547 34.416C203.184 33.7547 202.683 33.2427 202.043 32.88C201.403 32.496 200.656 32.304 199.803 32.304C198.949 32.304 198.192 32.496 197.531 32.88C196.891 33.2427 196.389 33.7653 196.027 34.448C195.664 35.1093 195.483 35.8987 195.483 36.816V37.584C195.483 38.5227 195.685 39.3547 196.091 40.08C196.517 40.784 197.104 41.328 197.851 41.712C198.619 42.0747 199.515 42.256 200.539 42.256C201.456 42.256 202.256 42.1173 202.939 41.84C203.643 41.5627 204.283 41.1467 204.859 40.592L207.515 43.472C206.725 44.368 205.733 45.0613 204.539 45.552C203.344 46.0213 201.968 46.256 200.411 46.256ZM221.469 46V23.6H225.757L235.293 39.408H233.021L242.397 23.6H246.653L246.717 46H241.853L241.821 31.056H242.717L235.229 43.632H232.893L225.245 31.056H226.333V46H221.469ZM262.239 46V42.64L261.919 41.904V35.888C261.919 34.8213 261.588 33.9893 260.927 33.392C260.287 32.7947 259.295 32.496 257.951 32.496C257.034 32.496 256.127 32.6453 255.231 32.944C254.356 33.2213 253.61 33.6053 252.991 34.096L251.199 30.608C252.138 29.9467 253.268 29.4347 254.591 29.072C255.914 28.7093 257.258 28.528 258.623 28.528C261.247 28.528 263.284 29.1467 264.735 30.384C266.186 31.6213 266.911 33.552 266.911 36.176V46H262.239ZM256.991 46.256C255.647 46.256 254.495 46.032 253.535 45.584C252.575 45.1147 251.839 44.4853 251.327 43.696C250.815 42.9067 250.559 42.0213 250.559 41.04C250.559 40.016 250.804 39.12 251.295 38.352C251.807 37.584 252.607 36.9867 253.695 36.56C254.783 36.112 256.202 35.888 257.951 35.888H262.527V38.8H258.495C257.322 38.8 256.511 38.992 256.063 39.376C255.636 39.76 255.423 40.24 255.423 40.816C255.423 41.456 255.668 41.968 256.159 42.352C256.671 42.7147 257.364 42.896 258.239 42.896C259.071 42.896 259.818 42.704 260.479 42.32C261.14 41.9147 261.62 41.328 261.919 40.56L262.687 42.864C262.324 43.9733 261.663 44.816 260.703 45.392C259.743 45.968 258.506 46.256 256.991 46.256ZM271.429 46V28.784H276.197V33.648L275.525 32.24C276.037 31.024 276.858 30.1067 277.989 29.488C279.12 28.848 280.496 28.528 282.117 28.528V33.136C281.904 33.1147 281.712 33.104 281.541 33.104C281.37 33.0827 281.189 33.072 280.997 33.072C279.632 33.072 278.522 33.4667 277.669 34.256C276.837 35.024 276.421 36.2293 276.421 37.872V46H271.429ZM289.245 42.48L289.373 36.4L297.405 28.784H303.357L295.645 36.624L293.053 38.736L289.245 42.48ZM285.117 46V22.256H290.109V46H285.117ZM297.949 46L292.125 38.768L295.261 34.896L303.997 46H297.949ZM314.067 46.256C312.104 46.256 310.376 45.872 308.883 45.104C307.411 44.336 306.269 43.2907 305.459 41.968C304.648 40.624 304.243 39.0987 304.243 37.392C304.243 35.664 304.637 34.1387 305.427 32.816C306.237 31.472 307.336 30.4267 308.723 29.68C310.109 28.912 311.677 28.528 313.427 28.528C315.112 28.528 316.627 28.8907 317.971 29.616C319.336 30.32 320.413 31.344 321.203 32.688C321.992 34.0107 322.387 35.6 322.387 37.456C322.387 37.648 322.376 37.872 322.355 38.128C322.333 38.3627 322.312 38.5867 322.291 38.8H308.307V35.888H319.667L317.747 36.752C317.747 35.856 317.565 35.0773 317.203 34.416C316.84 33.7547 316.339 33.2427 315.699 32.88C315.059 32.496 314.312 32.304 313.459 32.304C312.605 32.304 311.848 32.496 311.187 32.88C310.547 33.2427 310.045 33.7653 309.683 34.448C309.32 35.1093 309.139 35.8987 309.139 36.816V37.584C309.139 38.5227 309.341 39.3547 309.747 40.08C310.173 40.784 310.76 41.328 311.507 41.712C312.275 42.0747 313.171 42.256 314.195 42.256C315.112 42.256 315.912 42.1173 316.595 41.84C317.299 41.5627 317.939 41.1467 318.515 40.592L321.171 43.472C320.381 44.368 319.389 45.0613 318.195 45.552C317 46.0213 315.624 46.256 314.067 46.256ZM332.75 46.256C330.724 46.256 329.145 45.744 328.014 44.72C326.884 43.6747 326.318 42.128 326.318 40.08V24.976H331.31V40.016C331.31 40.7413 331.502 41.3067 331.886 41.712C332.27 42.096 332.793 42.288 333.454 42.288C334.244 42.288 334.916 42.0747 335.47 41.648L336.814 45.168C336.302 45.5307 335.684 45.808 334.958 46C334.254 46.1707 333.518 46.256 332.75 46.256ZM323.662 33.008V29.168H335.598V33.008H323.662Z" fill="white"/>
<path d="M57.0589 13.8223C57.2101 13.8482 57.3153 13.9948 57.4352 14.0902C58.4829 14.9233 59.3986 15.9866 60.2414 17.0217L61.5348 18.6745C62.3602 19.8416 63.1565 21.0305 63.8444 22.2851C64.7697 23.9727 65.5121 25.7713 66.1186 27.5969L66.8051 30.0166C66.8855 30.3106 66.9337 30.6758 67.0601 30.9497C67.1836 31.2171 67.6434 31.532 67.8773 31.7307L64.4967 35.9174L68.5915 42.0103L67.0498 42.0351C66.834 43.0515 66.6119 44.0616 66.314 45.0579C64.9709 49.5505 62.7007 53.8043 59.5729 57.3116C57.6875 59.4259 55.5008 61.2649 53.1312 62.8118C52.174 63.4367 51.1571 63.9776 50.1281 64.4738C45.0546 66.9202 39.4777 67.7793 33.89 67.1953C32.8242 67.0839 31.7675 66.95 30.7184 66.727C25.2066 65.5555 20.0879 63.0844 15.9514 59.2226L14.4151 57.7006C14.3002 57.5763 14.146 57.4457 14.0593 57.3009L14.0195 57.2146C14.3436 57.4451 14.6376 57.765 14.9407 58.027L16.8411 59.558C20.4539 62.2291 24.7532 64.1172 29.175 64.9139C37.1561 66.352 45.6996 64.7331 52.394 60.0701C54.019 58.9383 55.568 57.6627 56.9433 56.2361C61.2224 51.7976 63.9534 45.9834 65.0281 39.9422C65.3126 39.9066 65.6577 39.9572 65.9476 39.9672L61.6258 34.9136L65.8726 29.8191L65.1579 29.8322C64.9485 28.4145 64.5415 26.9932 64.0909 25.6347C63.1434 22.7777 61.8164 20.0332 60.098 17.5584C59.1863 16.2453 58.1396 14.9986 57.0589 13.8223Z" fill="url(#paint0_linear_241_215)"/>
<path d="M4.96924 39.9551L7.36876 39.943C7.71999 41.6768 8.12065 43.3861 8.73567 45.0493C10.7061 50.3781 14.4883 55.1358 19.2211 58.2788C25.5254 62.4655 33.326 63.9941 40.7476 62.4815C44.0262 61.8133 47.2609 60.5601 50.0956 58.7706C52.8962 57.0027 55.3705 54.6717 57.3707 52.0378L58.5051 50.3856C60.5485 47.2797 61.9606 43.6084 62.6107 39.954L65.0281 39.9421C63.9534 45.9832 61.2223 51.7975 56.9433 56.236C55.5679 57.6626 54.0189 58.9382 52.394 60.07C45.6995 64.7329 37.1561 66.3519 29.175 64.9138C24.7532 64.1171 20.4539 62.229 16.8411 59.5579L14.9407 58.0269C14.6376 57.7649 14.3435 57.445 14.0195 57.2145C14.0159 57.1868 13.9844 57.1667 13.965 57.1477C12.4515 55.6589 11.0163 54.0632 9.83557 52.2931C7.88371 49.3672 6.45567 46.2025 5.57312 42.7928L4.96924 39.9551Z" fill="#FCE7C4"/>
<path d="M4.97461 29.8326C5.11764 28.6979 5.39406 27.5877 5.70637 26.4891C6.62576 23.2549 8.07572 20.1892 9.99791 17.431C10.6079 16.5559 11.2503 15.6896 11.9673 14.8988C12.9538 13.8109 13.9688 12.7545 15.0851 11.7984C20.2112 7.40766 26.8182 4.788 33.5599 4.46588C37.704 4.26787 41.8983 4.88636 45.7835 6.35841C48.6796 7.45564 51.3946 9.00644 53.8358 10.9061C54.6238 11.5193 55.393 12.1785 56.1151 12.8678C56.4299 13.1684 56.7134 13.5121 57.0352 13.8012L57.059 13.8221C58.1397 14.9985 59.1864 16.2451 60.0981 17.5582C61.8164 20.0331 63.1435 22.7776 64.091 25.6346C64.5416 26.993 64.9486 28.4144 65.158 29.8321L62.6068 29.8353C62.3596 28.6082 62.0921 27.3952 61.7136 26.2006C61.4006 25.2124 61.0022 24.2615 60.5761 23.318C60.0485 22.1498 59.4641 20.9987 58.7762 19.9161C54.7565 13.5909 48.3718 9.06373 41.0452 7.43979C33.8486 5.84473 26.0954 7.27094 19.8869 11.2236C14.1342 14.8862 10.0091 20.5299 8.01638 27.0285C7.73474 27.9469 7.53554 28.8916 7.32739 29.8285L4.97461 29.8326Z" fill="#FCE7C4"/>
<path d="M7.32754 29.8285C7.5357 28.8916 7.73489 27.9469 8.01653 27.0286C10.0092 20.5299 14.1343 14.8862 19.887 11.2236C26.0956 7.27097 33.8488 5.84475 41.0453 7.43981C48.372 9.06375 54.7567 13.5909 58.7763 19.9161C59.4643 20.9987 60.0486 22.1498 60.5762 23.318C61.0024 24.2616 61.4008 25.2125 61.7138 26.2006C62.0922 27.3952 62.3597 28.6082 62.607 29.8353L65.1581 29.8321L65.8728 29.819L61.626 34.9135L65.9478 39.9671C65.6579 39.9571 65.3128 39.9065 65.0284 39.9422L62.6109 39.954C61.9608 43.6084 60.5488 47.2798 58.5053 50.3856L57.371 52.0378C55.3708 54.6717 52.8965 57.0027 50.0959 58.7706C47.2611 60.5601 44.0265 61.8133 40.7479 62.4815C33.3263 63.9941 25.5256 62.4655 19.2214 58.2788C14.4886 55.1358 10.7064 50.3781 8.73595 45.0493C8.12092 43.3862 7.72026 41.6768 7.36904 39.943L4.96951 39.9551L3.69789 39.9892L7.81467 34.9133L3.43066 29.7765L4.97476 29.8326L7.32754 29.8285Z" fill="#0C182F"/>
<path d="M10.3685 42.229C10.4453 42.2287 10.4945 42.2349 10.5661 42.2632L10.5471 43.1713C10.4976 42.9641 10.2993 42.4042 10.3685 42.229Z" fill="#E73D25"/>
<path d="M59.4855 42.1606C59.5939 42.1569 59.6803 42.1298 59.7694 42.1948L59.5396 42.9563C59.5195 43.0168 59.498 43.0707 59.4684 43.1272L59.4448 43.1006C59.4416 42.8578 59.3675 42.3566 59.4855 42.1606Z" fill="#E73D25"/>
<path d="M38.7529 43.3682C39.2311 43.6367 39.6957 43.8398 40.2147 44.0155C39.9601 44.2716 39.6929 44.4837 39.4069 44.7034C39.3686 44.5857 39.2579 44.4653 39.1879 44.3625C38.976 44.0513 38.8203 43.7396 38.7529 43.3682Z" fill="#F69A27"/>
<path d="M50.9629 51.3821C51.9093 52.0605 52.7205 52.4945 53.9295 52.4399L52.653 53.6919L51.1628 51.7479C51.0753 51.6269 51.017 51.5221 50.9629 51.3821Z" fill="#BD352F"/>
<path d="M40.2145 44.0156C41.0745 44.1892 41.812 44.1704 42.6617 43.9661C42.4675 44.2259 42.1869 44.431 41.9358 44.6337L40.5513 45.6736C40.2526 45.4625 39.9557 45.2572 39.6793 45.0165C39.5729 44.924 39.4556 44.8394 39.4067 44.7035C39.6927 44.4838 39.9599 44.2717 40.2145 44.0156Z" fill="#E73D25"/>
<path d="M22.0949 46.3145L24.334 47.4068L24.3417 47.4414L23.8863 48.2761C23.7539 48.5138 23.6009 48.7508 23.5065 49.0065L21.6021 47.2061C21.6245 47.1051 21.701 47.0069 21.7533 46.9177L22.0949 46.3145Z" fill="#F69A27"/>
<path d="M25.1794 20.7407L24.1812 20.486C24.2483 20.3856 24.3648 20.3094 24.4583 20.2317L25.0899 19.7457C28.8612 17.1116 33.5287 16.1027 38.0484 16.9046L34.5826 16.9156C32.2207 17.1904 29.8886 17.8986 27.7952 19.0391C26.8771 19.5395 26.023 20.1251 25.1794 20.7407Z" fill="#FDFCFC"/>
<path d="M43.2716 37.1145C43.8997 37.7691 44.2162 38.5104 44.1987 39.4261C44.1855 40.1233 43.85 40.8367 43.3471 41.3152C42.7883 41.8469 42.0013 42.17 41.2233 42.1399L40.7764 42.0853L40.7182 42.0751C40.0168 41.9455 39.3478 41.4531 38.9547 40.8667C38.5882 40.3198 38.3392 39.4962 38.4652 38.8397L38.4777 38.78C38.6548 39.2775 38.7785 39.6779 39.2173 40.0242C39.6738 40.3845 40.2757 40.5089 40.8448 40.4379C41.5787 40.3461 42.2007 39.8564 42.6394 39.2833C43.1202 38.6552 43.3754 37.9054 43.2716 37.1145Z" fill="#1B8B7F"/>
<path d="M40.9685 17.7058C42.7255 18.37 44.4157 19.312 45.8363 20.5489L44.0538 21.1746L43.3344 21.4885C43.2011 21.5522 43.0338 21.6683 42.8889 21.6942C42.7015 21.7276 42.4697 21.704 42.2784 21.7056L40.9531 21.7139L40.9685 17.7058Z" fill="#F07624"/>
<path d="M30.0126 36.6562C30.7003 37.1039 31.1608 37.7419 31.3306 38.5486C31.4959 39.3336 31.3774 40.0807 30.9311 40.7521C30.497 41.4053 29.7935 41.8965 29.0184 42.041C28.7055 42.0993 28.3584 42.0987 28.0443 42.0501C27.277 41.9313 26.6293 41.5566 26.1613 40.9355C25.6549 40.2635 25.5363 39.4867 25.615 38.6666C25.6253 38.7277 25.6363 38.7752 25.6629 38.8317L25.7828 39.0843C26.0403 39.5576 26.4132 39.9155 26.9399 40.0695C27.5589 40.2504 28.2232 40.1324 28.7792 39.8227C29.4364 39.4567 29.9733 38.8716 30.1739 38.1352L30.1896 38.076C30.3257 37.5757 30.2394 37.113 30.0126 36.6562Z" fill="#1B8B7F"/>
<path d="M25.6152 38.6668C25.6874 38.2532 25.7814 37.9135 26.0015 37.5514C26.3794 36.9294 27.0418 36.4603 27.7477 36.2901C28.5461 36.0976 29.3161 36.2333 30.0129 36.6564C30.2397 37.1131 30.3259 37.5758 30.1899 38.0762L30.1742 38.1354C29.9736 38.8717 29.4367 39.4569 28.7794 39.8229C28.2235 40.1325 27.5592 40.2506 26.9402 40.0696C26.4135 39.9156 26.0406 39.5577 25.7831 39.0844L25.6632 38.8319C25.6366 38.7753 25.6256 38.7278 25.6152 38.6668Z" fill="#71D4C0"/>
<path d="M38.4775 38.7801L38.4879 38.6401C38.5997 37.913 39.0127 37.3149 39.5913 36.8748C40.1666 36.4371 40.9181 36.2178 41.6379 36.3183L41.6991 36.3274C42.299 36.4117 42.8512 36.6776 43.2715 37.1146C43.3753 37.9055 43.12 38.6553 42.6392 39.2834C42.2006 39.8565 41.5786 40.3462 40.8446 40.4379C40.2755 40.509 39.6737 40.3846 39.2172 40.0243C38.7784 39.678 38.6547 39.2776 38.4775 38.7801Z" fill="#71D4C0"/>
<path d="M30.8916 35.392C31.2689 35.3035 31.7636 35.3486 32.1526 35.347L34.6265 35.3447L37.5383 35.3445C38.096 35.3444 38.6687 35.317 39.2241 35.3681C38.3147 35.9315 37.5984 36.5907 37.1776 37.5973L36.9844 38.1102C36.9747 38.1365 36.941 38.2476 36.9261 38.2643C36.9194 38.2719 36.9059 38.2644 36.8958 38.2644L32.9592 38.2486C32.8294 37.8556 32.7 37.4676 32.503 37.1019C32.1238 36.398 31.5351 35.8512 30.8916 35.392Z" fill="#1B8B7F"/>
<path d="M34.5825 16.9155L38.0482 16.9045C39.0164 17.0733 40.0668 17.3051 40.9685 17.7057L40.9531 21.7138L34.3335 21.7346L34.5556 21.7134C34.6188 21.6125 34.5932 21.4876 34.5929 21.3696L34.5909 20.5773L34.5825 16.9155Z" fill="#F69A27"/>
<path d="M25.1792 20.7406C26.0228 20.1251 26.8769 19.5394 27.795 19.0391C29.8884 17.8985 32.2205 17.1904 34.5824 16.9155L34.5908 20.5773L34.5929 21.3696C34.5931 21.4877 34.6188 21.6126 34.5556 21.7135L34.3335 21.7346L29.3155 21.7349C28.948 21.7357 27.4778 21.8152 27.2633 21.6895C26.6078 21.3051 25.8959 20.9912 25.1792 20.7406Z" fill="#F8C941"/>
<path d="M22.266 46.0004L24.674 41.8259L24.7523 41.9526C25.3956 42.9652 26.3893 43.6961 27.5661 43.9567C28.7286 44.214 29.9908 43.9949 30.9921 43.3437C32.0966 42.6254 32.723 41.6004 32.9941 40.3296L36.8092 40.3665C36.9981 41.1606 37.2612 41.7692 37.7482 42.4323L37.6855 42.4441C37.1666 42.5367 36.5881 42.4947 36.0596 42.4854L33.8373 42.4492C33.7056 43.61 33.2023 44.623 32.2744 45.354C31.4106 46.0344 30.3015 46.356 29.2064 46.2251C27.8394 46.0618 26.858 45.3575 26.0304 44.2967L24.915 46.409C24.8303 46.577 24.6676 46.8113 24.6451 46.9922L24.5963 46.9675C24.5147 47.1061 24.4346 47.2847 24.3339 47.4068L22.0947 46.3144L22.266 46.0004Z" fill="#F69A27"/>
<path d="M22.0947 46.3145L22.266 46.0005L24.5963 46.9676C24.5147 47.1062 24.4346 47.2848 24.3339 47.4068L22.0947 46.3145Z" fill="#E73D25"/>
<path d="M37.7482 42.4324C38.0635 42.7773 38.3775 43.0862 38.7526 43.3683C38.8199 43.7397 38.9756 44.0514 39.1875 44.3626C39.2575 44.4654 39.3683 44.5858 39.4066 44.7035C38.8183 45.1335 38.144 45.4942 37.4998 45.8329C35.3466 46.965 32.9357 47.7219 30.4958 47.8445C29.4315 47.898 28.361 47.8172 27.3094 47.6529C26.4407 47.5171 25.4616 47.3199 24.645 46.9923C24.6676 46.8115 24.8303 46.5771 24.915 46.4091L26.0304 44.2969C26.8579 45.3577 27.8394 46.0619 29.2064 46.2252C30.3015 46.3561 31.4105 46.0345 32.2743 45.3541C33.2023 44.6231 33.7056 43.6101 33.8372 42.4493L36.0595 42.4855C36.5881 42.4948 37.1666 42.5368 37.6855 42.4442L37.7482 42.4324Z" fill="#F8C941"/>
<path d="M43.7759 43.4585C43.6308 43.9745 41.615 45.5372 41.1527 45.906C40.866 46.1406 40.5062 46.4699 40.1686 46.6139C38.798 47.5538 37.2211 48.4031 35.6588 48.9711C32.5164 50.1136 28.962 50.416 25.6755 49.8004L25.2267 49.7156C25.1207 49.6505 24.9738 49.6325 24.8523 49.6019C24.5981 49.5378 24.37 49.4514 24.1038 49.4703C23.8972 49.3432 23.6988 49.1571 23.5063 49.0067C23.6008 48.7509 23.7537 48.514 23.8862 48.2762L24.3416 47.4416L24.3339 47.4069C24.4346 47.2848 24.5147 47.1063 24.5963 46.9676L24.6451 46.9923C25.4616 47.32 26.4407 47.5172 27.3094 47.6529C28.3611 47.8173 29.4316 47.8981 30.4959 47.8446C32.9357 47.722 35.3466 46.965 37.4999 45.833C38.1441 45.4943 38.8184 45.1336 39.4066 44.7035C39.4555 44.8395 39.5728 44.924 39.6792 45.0166C39.9556 45.2572 40.2525 45.4626 40.5512 45.6737L41.9357 44.6338C42.1868 44.4311 42.4674 44.226 42.6616 43.9661L43.7759 43.4585Z" fill="url(#paint1_linear_241_215)"/>
<path d="M39.4067 44.7034C39.4556 44.8393 39.5729 44.9239 39.6793 45.0165C39.9556 45.2571 40.2526 45.4624 40.5512 45.6735L39.94 46.0948C39.8239 46.1712 39.6987 46.2285 39.6033 46.333C38.7965 46.7525 38.0228 47.1802 37.1782 47.5252C33.5627 49.0023 29.6345 49.1712 25.9173 47.9938L24.3416 47.4414L24.334 47.4068C24.4347 47.2847 24.5148 47.1061 24.5963 46.9675L24.6452 46.9922C25.4617 47.3198 26.4408 47.517 27.3095 47.6528C28.3612 47.8171 29.4317 47.8979 30.496 47.8444C32.9358 47.7218 35.3467 46.9649 37.5 45.8328C38.1442 45.4942 38.8185 45.1334 39.4067 44.7034Z" fill="#F07624"/>
<path d="M62.6067 29.8354L65.1579 29.8322L65.8726 29.8191L61.6258 34.9136L65.9476 39.9672C65.6577 39.9572 65.3126 39.9066 65.0282 39.9423L62.6107 39.9542L59.369 39.963L58.7422 29.8234L62.6067 29.8354Z" fill="#E73D25"/>
<path d="M7.32754 29.8285L11.2853 29.7725L10.6298 39.9599L7.36904 39.9429L4.96951 39.955L3.69789 39.9892L7.81467 34.9133L3.43066 29.7764L4.97476 29.8326L7.32754 29.8285Z" fill="#E73D25"/>
<path d="M43.7761 43.4585C44.2519 43.1157 44.6101 42.7441 44.9702 42.2861C45.2541 42.5528 45.5027 43.0118 45.7304 43.3364L48.4974 47.2116C47.6779 47.9882 46.8662 48.7472 45.969 49.4358C43.635 51.2271 40.9114 52.4304 38.006 52.9053C36.9708 53.0746 35.9194 53.1988 34.8687 53.1712C34.0002 53.1484 33.1246 53.103 32.2657 52.9669C31.4299 52.8346 30.608 52.6105 29.8026 52.3553C28.8025 52.1026 27.8493 51.695 26.9273 51.2376C25.9348 50.7452 24.9589 50.1789 24.104 49.4703C24.3702 49.4514 24.5983 49.5378 24.8525 49.6019C24.974 49.6325 25.1209 49.6505 25.2269 49.7156L25.6757 49.8004C28.9622 50.416 32.5166 50.1136 35.659 48.9711C37.2213 48.4031 38.7982 47.5538 40.1688 46.6139C40.5064 46.4699 40.8662 46.1406 41.1529 45.906C41.6152 45.5372 43.631 43.9745 43.7761 43.4585Z" fill="#F07624"/>
<path d="M43.776 43.4585C44.2519 43.1157 44.6101 42.7441 44.9702 42.2861C45.254 42.5528 45.5027 43.0118 45.7304 43.3364C45.6331 43.6167 45.5424 43.9045 45.399 44.1653C45.0424 44.8136 44.4084 45.3657 43.747 45.6836C42.8723 46.1038 42.0846 46.0938 41.1528 45.906C41.6152 45.5372 43.631 43.9745 43.776 43.4585Z" fill="#E73D25"/>
<path d="M24.104 49.4702C24.3702 49.4512 24.5983 49.5376 24.8525 49.6017C24.974 49.6323 25.1209 49.6503 25.2269 49.7154L25.2573 49.7298C26.2522 50.1924 27.4321 50.4856 28.5059 50.6918C29.6773 50.9168 30.8633 51.0846 32.0586 51.0943C34.5558 51.1146 37.1052 50.4545 39.4388 49.6085C39.5769 49.5584 39.7012 49.4982 39.8443 49.4597C39.4893 49.673 39.1179 49.8513 38.7503 50.041C37.633 50.6174 36.4968 51.1094 35.2906 51.4708C34.2178 51.7922 33.1018 51.9855 31.9912 52.1152L30.3765 52.2621C30.2217 52.2752 29.9225 52.2637 29.8026 52.3551C28.8025 52.1025 27.8493 51.6949 26.9273 51.2375C25.9348 50.745 24.9589 50.1787 24.104 49.4702Z" fill="#F8C941"/>
<path d="M22.4443 50.7625C23.0538 51.2391 23.6541 51.7002 24.3097 52.1126C28.3482 54.6535 33.1368 55.6983 37.8674 55.1221C40.7741 54.768 43.6629 53.6534 46.03 51.9247C46.5205 51.5665 46.9739 51.1632 47.4242 50.7564L48.4007 49.8082L49.0414 49.107C49.1291 49.0101 49.2172 48.8839 49.3307 48.8193L50.5568 50.8181L50.8836 51.2735C50.8953 51.289 50.9616 51.365 50.9628 51.3822C51.0169 51.5222 51.0752 51.627 51.1628 51.748L52.6529 53.692C48.7671 57.4736 43.5481 59.7732 38.1853 60.4026C36.8875 60.555 35.5928 60.5846 34.2874 60.5661C30.5647 60.5135 26.7068 59.6079 23.3737 57.9446C22.07 57.294 20.8457 56.5078 19.666 55.6553L15.9629 52.4087C16.335 52.3992 16.6997 52.3556 17.0622 52.2727C17.855 52.0915 18.5992 51.7139 19.1473 51.1041C19.7028 50.4859 20.0772 49.7038 20.5197 49.0039L22.4443 50.7625Z" fill="#E73D25"/>
<path d="M21.7335 52.1003C22.1467 52.4741 22.5987 52.803 23.0435 53.1374C27.023 56.1284 31.9609 57.4771 36.9129 57.2319C40.3163 57.0634 43.7854 56.0044 46.7482 54.3223C47.3586 53.9757 47.9652 53.6123 48.5228 53.1845C48.9015 52.8939 49.2419 52.5725 49.5971 52.2556C49.6545 52.2043 49.966 51.9106 50.0078 51.9166C50.072 51.9258 50.3144 52.1436 50.3827 52.1941C49.5429 53.2144 48.5285 54.1048 47.4692 54.889C44.4186 57.1474 40.8752 58.4919 37.0988 58.8619C32.2742 59.3345 27.5114 58.267 23.406 55.6722C22.6854 55.2168 21.9615 54.7401 21.3058 54.1939L20.792 53.7333L21.7335 52.1003Z" fill="#F07624"/>
<path d="M14.607 22.8642C13.6317 23.7012 12.7717 24.8999 12.2173 26.0529C11.9728 26.5615 11.7902 27.0908 11.5983 27.6204L10.3911 27.6188C11.007 25.7384 11.737 23.9577 12.714 22.2343C15.9616 16.5049 21.5836 11.9735 27.9587 10.2205C29.4132 9.82056 30.8739 9.51671 32.3754 9.35784C37.5426 8.81124 42.9498 9.84442 47.4744 12.4233C50.5293 14.1645 53.2779 16.4316 55.4098 19.2455C56.4028 20.5561 57.2183 21.9455 57.9521 23.4145C58.5935 24.6985 59.1899 26.0619 59.5702 27.4488L58.1589 27.4529L57.8521 26.687C56.5915 23.6401 53.7857 21.2527 50.6287 20.3648C50.0868 20.2124 49.5214 20.1191 48.9616 20.0643L48.4432 20.0383C48.3873 20.0372 48.2618 20.0513 48.2117 20.0342C48.1771 20.0226 48.0792 19.9066 48.0489 19.8775L47.5222 19.3791L46.5615 18.5709C45.2711 17.5599 43.8427 16.7121 42.3266 16.086C41.1912 15.617 40.0117 15.2324 38.8066 14.9877C34.018 14.0156 29.0924 15.0131 24.9357 17.5294C24.2719 17.9312 23.6082 18.3949 22.9994 18.8756L22.0598 19.659C21.943 19.7627 21.7204 20.0305 21.5888 20.0888C21.4571 20.1472 21.1047 20.1168 20.9521 20.1267L19.995 20.2354C19.2285 20.355 18.4606 20.5842 17.7453 20.8806C17.0165 21.2547 16.2964 21.5977 15.6199 22.0682C15.2686 22.3125 14.9575 22.6322 14.607 22.8642Z" fill="#E73D25"/>
<path d="M14.6069 22.8644L14.6619 22.7561C14.8277 22.4487 15.0568 22.1498 15.2574 21.863L16.69 19.9959C19.8031 16.3127 23.7917 13.4336 28.4654 12.0926C32.6052 10.9048 37.1703 10.9675 41.2678 12.3122C42.5987 12.7488 43.9245 13.3584 45.1508 14.0356C47.6844 15.4349 49.8903 17.2296 51.8565 19.3477L52.4035 19.9481C52.471 20.0207 52.5574 20.0872 52.5852 20.1836L49.0816 17.0427C47.3748 15.6999 45.4919 14.6536 43.485 13.8306C41.5526 13.038 39.5628 12.4864 37.4775 12.2919C36.0088 12.1549 34.4897 12.2089 33.026 12.3868C31.424 12.5815 29.8452 13.0052 28.3268 13.5428C27.0445 13.9967 25.7989 14.521 24.6007 15.1674C22.0204 16.5592 19.5537 18.5732 17.7452 20.8808C17.0164 21.2548 16.2963 21.5979 15.6198 22.0684C15.2685 22.3127 14.9574 22.6324 14.6069 22.8644Z" fill="#FDFCFC"/>
<path d="M42.7558 35.0193C42.3125 34.2316 41.9938 33.3636 41.8516 32.4684C41.5321 30.4577 41.8815 28.3149 43.1006 26.6442C44.1477 25.2094 45.7609 24.2069 47.5157 23.9348C48.7473 23.7437 50.0055 23.9548 51.1491 24.4305C51.525 24.5868 51.8944 24.7573 52.2222 25.0018C53.0959 25.6538 53.8935 26.533 54.3603 27.5229C54.7207 28.2872 54.9022 29.0972 55.0219 29.9286L55.2649 30.8493C55.3051 30.9963 55.3296 31.1496 55.4088 31.2814L55.4249 31.3088C55.5822 30.964 55.8168 30.6551 55.9764 30.3092C56.1888 29.8491 56.2815 29.354 56.4401 28.8751C56.5598 29.2896 56.6872 29.7032 56.7526 30.1307C56.8763 30.94 56.8684 31.809 56.9178 32.6279L57.1152 35.7006L57.7453 45.4652L57.7471 45.4734C57.8433 46.5752 57.9457 47.5642 57.2872 48.5261C56.6 49.53 55.5821 50.2266 54.3889 50.4636C53.8455 50.5717 53.2549 50.53 52.7381 50.3255C52.4752 50.2214 52.2831 50.1084 52.1147 49.8764C51.7103 49.3193 51.4118 48.6495 51.0763 48.0469L49.1741 44.6821L46.6063 40.2917C46.3914 39.9164 46.1373 39.5506 45.9378 39.169C45.8282 38.9593 45.8133 38.6411 45.7583 38.4079C45.6855 38.0997 45.5852 37.7935 45.4575 37.5036C44.9359 36.3194 43.9373 35.4834 42.7558 35.0193Z" fill="#1B8B7F"/>
<path d="M55.0216 29.9287L55.2646 30.8494C55.3048 30.9964 55.3293 31.1497 55.4085 31.2815L55.4246 31.3089L55.4085 31.3239C55.2029 31.9083 55.0013 32.4903 54.7122 33.0403C53.9833 34.4273 52.7824 35.576 51.3743 36.2571C49.8832 36.9783 48.1852 37.0315 46.6334 36.4898C46.4402 36.4223 46.05 36.3 45.9179 36.1422L45.9146 36.1147C46.8885 36.4597 47.768 36.6352 48.8044 36.6077C50.4494 36.5643 52.0664 35.7737 53.1848 34.5827C54.2741 33.4227 54.8749 31.7884 54.8183 30.2029L54.8369 30.1827C54.8837 30.2578 54.8877 30.3762 54.9028 30.4639L55.0804 30.4032C55.0507 30.3517 55.0585 30.3774 55.0521 30.3197L55.0465 30.2661C55.0246 30.1455 55.0185 30.0516 55.0216 29.9287Z" fill="#71D4C0"/>
<path d="M56.4398 28.875C56.5594 29.2895 56.6869 29.7032 56.7523 30.1307C56.8759 30.94 56.8681 31.809 56.9175 32.6279L57.1149 35.7005L57.745 45.4652L57.7163 45.6468L56.7176 46.1346C55.8292 46.5678 53.9618 47.4646 53.0022 47.1182L52.9612 47.1026C52.7282 47.0187 52.5337 46.9067 52.3723 46.7146C52.1803 46.4862 52.0326 46.1962 51.8854 45.9373L51.2712 44.8932L48.7229 40.7101C48.1813 39.8033 47.6768 38.865 47.0693 38C47.2009 37.9911 47.3484 38.0351 47.48 38.0541L48.1996 38.128C49.2673 38.2001 50.5397 37.8853 51.4831 37.3993C53.3537 36.4355 54.7287 34.8596 55.3454 32.84C55.4677 32.4392 55.6116 31.7079 55.4085 31.3238L55.4246 31.3087C55.5819 30.9639 55.8164 30.655 55.9761 30.3091C56.1885 29.8491 56.2812 29.354 56.4398 28.875Z" fill="#39B6A6"/>
<path d="M45.9145 36.1146C45.8898 36.0765 45.7771 36.038 45.7314 36.0161L45.2195 35.752C43.8902 35.0068 42.9311 33.6191 42.5374 32.1656C42.1132 30.599 42.3467 28.842 43.163 27.444C44.0116 25.9908 45.3418 25.0324 46.9537 24.6105C48.6759 24.1597 50.3367 24.5108 51.8488 25.3984C52.2233 25.6182 52.6043 25.859 52.925 26.1541C53.7342 26.8989 54.3254 27.9914 54.6018 29.0496C54.6568 29.26 54.7092 29.473 54.7407 29.6883C54.7632 29.8429 54.7622 30.0213 54.8062 30.1692L54.8183 30.2027C54.8749 31.7882 54.2741 33.4225 53.1847 34.5825C52.0664 35.7735 50.4494 36.5642 48.8044 36.6076C47.768 36.635 46.8885 36.4595 45.9145 36.1146Z" fill="#0C182F"/>
<path d="M52.6337 27.3232C53.3739 28.019 53.7978 29.3541 53.8333 30.3516C53.881 31.6921 53.2585 33.0484 52.3471 34.009C51.3867 35.0212 50.005 35.6514 48.6033 35.6808C47.269 35.7087 45.8555 35.1927 44.8998 34.2565C44.6177 33.9801 44.3051 33.6567 44.1318 33.2992C44.4254 33.3839 44.6873 33.4823 44.997 33.5132C45.3436 33.5477 45.7283 33.5262 46.0484 33.3794C46.3692 33.2323 46.6505 32.9707 46.9232 32.7497C47.0751 32.491 47.2587 32.2872 47.4721 32.0784C47.9942 31.8036 48.4875 31.7003 49.0645 31.8741C49.5573 32.0226 49.9411 32.3303 50.1794 32.7879L50.2596 32.9563C50.4683 32.6889 50.728 32.4534 50.9672 32.2132C50.8159 32.1251 50.6701 32.0359 50.5436 31.9136C50.1844 31.5663 50.0003 31.1257 49.9956 30.6243C49.9893 29.9296 50.2464 29.4143 50.728 28.9286L50.7578 28.9113L50.8079 28.8831C50.9915 28.7779 51.1616 28.7111 51.362 28.6458C51.8377 28.2518 52.1986 27.7571 52.6337 27.3232Z" fill="#41607C"/>
<path d="M47.4722 32.0782C47.9943 31.8035 48.4876 31.7001 49.0646 31.8739C49.5574 32.0224 49.9412 32.3302 50.1795 32.7878L50.2597 32.9561L50.2891 33.0587C50.4296 33.5653 50.416 34.1303 50.1423 34.5924C49.9062 34.9912 49.4983 35.2925 49.0486 35.404L48.9964 35.4164C48.7514 35.4769 48.5157 35.4961 48.2655 35.4554L48.2103 35.4459L48.0052 35.4028C47.5093 35.2512 47.1059 34.886 46.8786 34.4252C46.6071 33.8749 46.7299 33.3024 46.9233 32.7495C47.0752 32.4908 47.2588 32.287 47.4722 32.0782Z" fill="#0C182F"/>
<path d="M49.2678 32.5737C49.5566 32.7657 49.7824 33.0458 49.8576 33.3906C49.9281 33.7139 49.8513 34.0477 49.6725 34.3237C49.4653 34.6436 49.1504 34.8364 48.7777 34.903C48.4212 34.9667 48.0784 34.8787 47.7828 34.6712C47.4882 34.4643 47.3744 34.203 47.2729 33.8743C47.454 33.9601 47.5469 34.1382 47.713 34.2435C47.9472 34.3918 48.2935 34.4296 48.5621 34.3643C48.8552 34.2929 49.1083 34.106 49.2626 33.846C49.5217 33.4099 49.3872 33.0233 49.2678 32.5737Z" fill="#BD352F"/>
<path d="M47.2734 33.8744C47.244 33.5558 47.2394 33.2307 47.4139 32.948C47.5978 32.65 47.9465 32.4357 48.2872 32.3736C48.6301 32.3111 48.9801 32.3792 49.2683 32.5738C49.3876 33.0234 49.5221 33.41 49.2631 33.8461C49.1087 34.1061 48.8556 34.293 48.5625 34.3644C48.2939 34.4297 47.9477 34.3919 47.7134 34.2436C47.5474 34.1383 47.4545 33.9602 47.2734 33.8744Z" fill="#F07624"/>
<path d="M51.3621 28.6456C51.9976 28.6279 52.4983 28.6495 52.991 29.1097C53.3897 29.4821 53.6245 30.0441 53.6251 30.5907C53.6257 31.0907 53.3876 31.591 53.028 31.9315C52.7623 32.183 52.4686 32.3244 52.1068 32.3774L52.053 32.3856C51.6726 32.4393 51.3214 32.3469 50.9673 32.213C50.816 32.125 50.6702 32.0357 50.5437 31.9134C50.1845 31.5662 50.0004 31.1255 49.9957 30.6242C49.9894 29.9295 50.2465 29.4142 50.7281 28.9284L50.7579 28.9111L50.808 28.883C50.9916 28.7777 51.1617 28.7109 51.3621 28.6456Z" fill="#0C182F"/>
<path d="M52.4088 29.2952C52.7435 29.5102 52.9531 29.8024 53.0354 30.1927C53.1138 30.5646 53.0704 30.9763 52.8414 31.2915C52.6198 31.5963 52.258 31.7646 51.891 31.8092C51.5431 31.8515 51.2231 31.7361 50.9554 31.5131C50.6766 31.2808 50.567 30.9733 50.5093 30.6265L50.9472 30.9813C51.192 31.1521 51.5053 31.2553 51.8056 31.1951C52.0343 31.1493 52.2525 30.9819 52.3801 30.7908C52.7095 30.2976 52.5068 29.8128 52.4088 29.2952Z" fill="#BD352F"/>
<path d="M50.5093 30.6264C50.509 30.3494 50.5307 30.09 50.6635 29.8398C50.8189 29.5471 51.1048 29.296 51.4228 29.2004C51.7657 29.0974 52.093 29.1339 52.4088 29.2951C52.5068 29.8127 52.7095 30.2975 52.3801 30.7907C52.2525 30.9818 52.0343 31.1492 51.8056 31.195C51.5053 31.2552 51.1921 31.152 50.9472 30.9812L50.5093 30.6264Z" fill="#F07624"/>
<path d="M44.1319 33.2991C43.6031 32.6793 43.3205 31.6303 43.2809 30.8278C43.2139 29.4711 43.7147 28.1564 44.6251 27.153C45.6518 26.0216 47.0248 25.5011 48.5294 25.4395C50.1514 25.373 51.4891 26.2777 52.6338 27.3231C52.1987 27.757 51.8378 28.2516 51.3621 28.6457C51.1616 28.711 50.9916 28.7777 50.808 28.883L50.7579 28.9112L50.7281 28.9285C50.2465 29.4142 49.9894 29.9295 49.9957 30.6242C50.0004 31.1255 50.1844 31.5662 50.5437 31.9134C50.6702 32.0357 50.816 32.125 50.9673 32.2131C50.7281 32.4533 50.4684 32.6888 50.2597 32.9562L50.1795 32.7878C49.9412 32.3302 49.5574 32.0225 49.0646 31.874C48.4876 31.7002 47.9943 31.8035 47.4722 32.0783C47.2588 32.2871 47.0752 32.4909 46.9233 32.7495C46.6506 32.9706 46.3693 33.2322 46.0484 33.3793C45.7284 33.526 45.3437 33.5476 44.9971 33.513C44.6873 33.4822 44.4255 33.3838 44.1319 33.2991Z" fill="url(#paint2_linear_241_215)"/>
<path d="M47.4722 32.0784C47.5446 31.8937 47.7355 31.7493 47.8753 31.6096L48.7151 30.7454C49.1514 30.2688 49.5592 29.74 50.0218 29.2906C50.1246 29.1907 50.2333 29.1201 50.3595 29.0524L50.4148 29.0232C50.5286 28.9624 50.5965 28.92 50.728 28.9286C50.2465 29.4144 49.9893 29.9297 49.9956 30.6243C50.0003 31.1257 50.1844 31.5663 50.5436 31.9136C50.6701 32.0359 50.816 32.1251 50.9672 32.2132C50.728 32.4534 50.4684 32.6889 50.2596 32.9563L50.1794 32.788C49.9411 32.3304 49.5573 32.0226 49.0645 31.8741C48.4876 31.7003 47.9942 31.8037 47.4722 32.0784Z" fill="#39B6A6"/>
<path d="M48.3473 25.7092C48.7705 25.6659 49.1762 25.744 49.5424 25.9632C50.0161 26.2466 50.341 26.7034 50.4601 27.2411C50.5564 27.6759 50.4417 28.1266 50.2094 28.4977C49.9331 28.9388 49.5033 29.1766 49.0071 29.2812C48.5024 29.3512 48.0716 29.3285 47.6233 29.0588C47.256 28.838 46.9213 28.4113 46.8211 27.9909C46.7059 27.5078 46.7901 26.9185 47.0646 26.5037C47.3727 26.0383 47.8135 25.8136 48.3473 25.7092Z" fill="#0C182F"/>
<path d="M49.8926 27.1948C49.9376 27.6126 49.9252 27.9608 49.6565 28.3128C49.4467 28.5876 49.1094 28.7387 48.7714 28.7734C48.3942 28.8121 48.024 28.6833 47.7357 28.4394C47.459 28.2052 47.3193 27.909 47.2997 27.5476L47.2983 27.4572C47.3957 27.5039 47.4575 27.5808 47.5315 27.6568C47.7987 27.9311 48.1124 28.1672 48.5155 28.1622C49.2007 28.1536 49.4693 27.6136 49.8926 27.1948Z" fill="#F07624"/>
<path d="M47.2979 27.4572C47.2972 27.3679 47.3024 27.2831 47.3164 27.1946C47.369 26.8605 47.5171 26.6321 47.7918 26.4354C48.079 26.2299 48.4057 26.1472 48.7557 26.2021L48.8082 26.2109C48.9614 26.2348 49.0985 26.2805 49.2379 26.3477C49.5861 26.5158 49.7701 26.8463 49.8921 27.1948C49.4689 27.6136 49.2003 28.1536 48.5151 28.1623C48.112 28.1672 47.7982 27.9311 47.5311 27.6568C47.4571 27.5808 47.3953 27.5039 47.2979 27.4572Z" fill="#F8C941"/>
<path d="M45.2016 28.614C45.6264 28.574 46.0142 28.6159 46.3989 28.8166C46.8501 29.0521 47.1948 29.5182 47.3255 30.0059C47.4653 30.5275 47.3858 31.0662 47.1164 31.5321C46.8229 32.0395 46.3886 32.2633 45.8396 32.4149C45.406 32.4945 44.9551 32.4126 44.5684 32.2062C44.1225 31.9683 43.8051 31.5771 43.6675 31.0893C43.5187 30.5616 43.5636 29.927 43.8533 29.4539C44.154 28.9631 44.6612 28.73 45.2016 28.614Z" fill="#0C182F"/>
<path d="M46.1805 29.3667C46.4994 29.63 46.7394 29.9047 46.7908 30.3338C46.8347 30.7008 46.7469 31.0816 46.5102 31.3702C46.2462 31.6921 45.8745 31.8243 45.4671 31.8503C45.1343 31.8715 44.7824 31.7565 44.5357 31.5307C44.3463 31.3573 44.2553 31.1654 44.1743 30.9284L44.4579 31.0886C44.7749 31.2527 45.2119 31.3068 45.5557 31.1943C45.8605 31.0945 46.0785 30.898 46.2129 30.6069C46.344 30.323 46.3686 29.8918 46.2551 29.5971L46.1805 29.3667Z" fill="#E73D25"/>
<path d="M44.1741 30.9283C44.0894 30.6901 44.0907 30.3718 44.1453 30.1286C44.219 29.8002 44.4366 29.5191 44.7213 29.3431C45.0022 29.1694 45.4212 29.0909 45.7451 29.175L45.7834 29.1858C45.9329 29.2267 46.048 29.2862 46.1802 29.3666L46.2548 29.597C46.3684 29.8917 46.3438 30.3229 46.2127 30.6068C46.0783 30.8979 45.8602 31.0944 45.5554 31.1942C45.2116 31.3067 44.7747 31.2526 44.4577 31.0885L44.1741 30.9283Z" fill="#F69A27"/>
<path d="M24.6885 22.7528L24.7263 22.7658C25.2828 22.9634 25.8262 23.3732 26.4102 23.4689C26.9818 23.5627 27.6224 23.5078 28.2036 23.509L31.6487 23.5131L43.5213 23.5139C43.6638 23.5136 43.8245 23.4158 43.9513 23.3551L44.6901 23.0249C45.5367 22.6924 46.4373 22.4476 47.3193 22.2292C47.6923 22.1368 48.0619 21.9948 48.4496 22.0326L49.5956 22.1863C49.7824 22.2167 49.9915 22.2336 50.1698 22.2979C50.4855 22.4115 50.8056 22.5969 51.1028 22.7544C51.3278 22.8737 51.5802 22.9892 51.7882 23.1349C52.6156 23.5756 53.4246 24.12 54.0893 24.7852C55.208 25.9048 55.9513 27.386 56.4399 28.8751C56.2813 29.3541 56.1887 29.8492 55.9763 30.3092C55.8166 30.6551 55.582 30.964 55.4247 31.3089L55.4086 31.2815C55.3294 31.1496 55.3049 30.9964 55.2647 30.8493L55.0217 29.9287C54.9021 29.0972 54.7205 28.2873 54.3601 27.523C53.8933 26.5331 53.0957 25.6539 52.222 25.0019C51.8943 24.7574 51.5248 24.5869 51.1489 24.4305C50.0054 23.9548 48.7471 23.7438 47.5155 23.9349C45.7607 24.207 44.1475 25.2095 43.1004 26.6443C41.8813 28.3149 41.532 30.4578 41.8514 32.4685C41.9937 33.3637 42.3124 34.2317 42.7557 35.0194C41.6994 34.6245 40.4373 34.8147 39.4352 35.2712L39.2241 35.3682C38.6687 35.3172 38.096 35.3446 37.5383 35.3446L34.6265 35.3448L32.1525 35.3472C31.7636 35.3488 31.2689 35.3036 30.8916 35.3922C30.3837 35.1344 29.9198 34.9385 29.3603 34.8241C28.7534 34.7001 28.1562 34.737 27.5487 34.8308C26.3407 35.1446 25.2977 35.8089 24.6465 36.8939C24.3811 37.3359 24.1602 37.8802 24.0596 38.387C24.017 38.6012 24.03 38.8505 23.9399 39.0503C23.7722 39.4217 23.5379 39.7856 23.3334 40.1398L22.0655 42.3063L19.1266 47.3703C18.6997 48.0938 18.3104 48.9483 17.7583 49.5795C17.4316 49.9531 16.9845 50.1851 16.5088 50.3096C16.0336 50.434 15.5498 50.4353 15.0733 50.3177C14.0153 50.0564 13.0961 49.3765 12.5276 48.4455C12.1467 47.8217 12.2245 47.2476 12.258 46.5606L12.3617 45.0392L13.0254 34.4701L13.2161 31.098C13.2615 30.3083 13.2682 29.5208 13.4228 28.7431C13.5999 27.8523 13.9761 27.0208 14.4291 26.2391C15.5581 24.2911 17.4353 22.9675 19.595 22.3982C20.9852 22.0318 22.4056 22.049 23.7912 22.4297C24.0814 22.5095 24.4289 22.6009 24.6885 22.7528Z" fill="url(#paint3_linear_241_215)"/>
<path d="M30.336 29.9408L33.5759 29.9346L33.5602 31.4392L30.3208 31.4569L30.336 29.9408Z" fill="#0C182F"/>
<path d="M36.2647 29.938L39.5214 29.9381L39.536 31.449L36.2646 31.4459L36.2647 29.938Z" fill="#0C182F"/>
<path d="M25.125 23.6961L24.6946 23.6041C23.6995 23.4072 22.6705 23.2316 21.6535 23.2439C20.188 23.2615 18.7311 23.6909 17.5126 24.5084C15.8673 25.6124 14.8717 27.2526 14.376 29.1528C14.2475 29.6453 14.1703 30.155 14.0716 30.6546C13.8332 30.316 13.612 29.8832 13.6599 29.4572C13.8169 28.0593 14.4015 26.7009 15.2537 25.5861C16.5596 23.8777 18.4886 22.8215 20.6182 22.5547C21.881 22.3964 23.1651 22.5924 24.3334 23.0831C24.5935 23.2626 24.9422 23.4334 25.125 23.6961Z" fill="#FDFCFC"/>
<path d="M34.674 24.3435C35.2249 24.2973 35.7446 24.3784 36.204 24.7043C36.6838 25.0446 37.0333 25.6013 37.1298 26.1811C37.2187 26.7155 37.0842 27.3145 36.7673 27.7544C36.3827 28.2883 35.8766 28.5571 35.2381 28.666C34.9776 28.6934 34.6613 28.701 34.4078 28.63L34.3503 28.6129C34.1112 28.5448 33.9157 28.4547 33.7083 28.3195C33.2299 28.0077 32.8996 27.5389 32.7913 26.9758C32.6794 26.3936 32.7768 25.8075 33.1181 25.3155C33.4778 24.7974 34.0583 24.4496 34.674 24.3435Z" fill="#0C182F"/>
<path d="M33.2564 25.9386C33.3025 25.7667 33.3801 25.6013 33.4887 25.4602C33.7801 25.0813 34.2093 24.8059 34.6885 24.7528C35.1867 24.6975 35.6434 24.8067 36.0401 25.1166C36.3844 25.3849 36.6075 25.7307 36.6827 26.1645L36.6914 26.2117C36.7668 26.6552 36.6706 27.1499 36.4084 27.5169C36.1318 27.9038 35.7331 28.1766 35.2579 28.2482C34.7907 28.3186 34.2938 28.223 33.9106 27.9381C33.5592 27.6769 33.2443 27.2341 33.1915 26.7901C33.1573 26.5026 33.1742 26.2161 33.2564 25.9386Z" fill="#BD352F"/>
<path d="M33.2563 25.9386C33.3025 25.7667 33.3801 25.6013 33.4886 25.4602C33.78 25.0813 34.2092 24.8059 34.6885 24.7528C35.1867 24.6975 35.6433 24.8067 36.0401 25.1166C36.0032 25.7413 36.0235 26.2654 35.5037 26.7204C35.2113 26.9764 34.7814 27.0378 34.4074 27.0062C34.2309 26.9913 34.0715 26.9298 33.9232 26.836L33.8914 26.8163C33.6351 26.6509 33.4693 26.412 33.3676 26.1318C33.3405 26.057 33.3024 26.0027 33.2563 25.9386Z" fill="#E04A57"/>
<path d="M34.471 25.0587C34.601 25.0551 34.7233 25.0758 34.8209 25.1689C34.9003 25.2447 34.9166 25.3416 34.9205 25.4468C34.8246 25.6553 34.6363 25.7314 34.442 25.8287C34.3612 25.8375 34.2681 25.8522 34.1911 25.8191C34.1128 25.7855 34.0579 25.7473 34.0235 25.6672C33.9816 25.5694 33.9788 25.4723 34.025 25.3746C34.114 25.1864 34.2888 25.1257 34.471 25.0587Z" fill="#FDFCFC"/>
<path d="M24.6884 22.7528L24.7262 22.7658C25.2827 22.9634 25.8261 23.3732 26.4101 23.4689C26.9817 23.5627 27.6223 23.5078 28.2034 23.509L31.6485 23.5131L43.5212 23.5139C43.6637 23.5136 43.8244 23.4158 43.9512 23.3551L44.69 23.0249C45.5365 22.6924 46.4372 22.4476 47.3191 22.2292C47.6922 22.1368 48.0618 21.9948 48.4495 22.0326L49.5955 22.1863C49.7823 22.2167 49.9914 22.2336 50.1697 22.2979C50.4854 22.4115 50.8055 22.5969 51.1027 22.7544C51.3277 22.8737 51.58 22.9892 51.7881 23.1349L51.7735 23.1824L51.6282 23.1055C51.5221 23.1857 51.4804 23.324 51.4641 23.4527L51.457 23.6182L51.4744 23.6353L51.5086 23.584C51.5446 23.5346 51.5852 23.4903 51.6282 23.4473C51.6371 23.5463 51.5165 23.661 51.4633 23.7488C51.0473 23.604 50.6221 23.4414 50.1927 23.343C48.389 22.9295 46.4108 23.1244 44.7293 23.9133C44.5007 24.0205 44.2742 24.2082 44.024 24.2411C43.7072 24.2828 43.367 24.2601 43.0477 24.2603L41.2468 24.259L37.4226 24.2622L35.5809 24.2677C35.3924 24.2616 35.2062 24.2232 35.015 24.2204C34.7711 24.2169 34.5284 24.2635 34.2838 24.2642L29.6229 24.2661L27.0288 24.2535C26.6533 24.2335 26.2754 24.1474 25.9213 24.0226C25.6515 23.9276 25.3975 23.7767 25.1251 23.6961C24.9423 23.4333 24.5936 23.2626 24.3335 23.0831C24.3933 23.0876 24.4377 23.0885 24.4913 23.1189L24.5324 23.1449C24.5798 23.171 24.6227 23.1876 24.6673 23.22C24.8013 23.3172 24.9427 23.403 25.0647 23.516C25.1072 23.5554 25.1438 23.6288 25.1843 23.6609L25.6699 23.8756L25.8921 23.9611L25.9423 23.9771L26.1132 24.0283C26.1383 23.9714 26.1542 23.9323 26.1579 23.869L26.1585 23.8226L26.2352 23.7615C26.2269 23.7061 26.2156 23.6543 26.2243 23.5982L26.2306 23.5709C26.1605 23.4309 26.1008 23.427 25.9594 23.3789C25.8137 23.3294 25.6746 23.2686 25.5403 23.1927C25.273 23.0414 24.9438 22.9554 24.6821 22.7951L24.6884 22.7528Z" fill="#B5E4DF"/>
<path d="M24.3586 24.6562C24.6075 24.6087 25.0338 24.9241 25.2429 25.0663C26.7766 26.1088 27.8824 27.8957 28.216 29.7111C28.5409 31.479 28.1436 33.1686 27.5487 34.8308C26.3407 35.1445 25.2978 35.8089 24.6465 36.8938C24.3811 37.3359 24.1602 37.8802 24.0596 38.387C24.017 38.6012 24.03 38.8505 23.9399 39.0502C23.7722 39.4216 23.5379 39.7856 23.3334 40.1397L22.0655 42.3063L19.1266 47.3703C18.6997 48.0938 18.3104 48.9482 17.7583 49.5795C17.4316 49.9531 16.9845 50.1851 16.5088 50.3096C16.0336 50.434 15.5498 50.4353 15.0733 50.3177C14.0153 50.0564 13.0961 49.3765 12.5276 48.4455C12.1467 47.8217 12.2245 47.2475 12.258 46.5606L12.3617 45.0392C12.3643 45.1276 12.3593 45.235 12.4005 45.3153C12.5022 45.5137 12.6937 45.7194 12.8478 45.883C13.4473 46.5194 14.1664 47.0043 14.9969 47.2833C15.5674 47.4749 16.2921 47.537 16.873 47.3612C17.2608 47.2438 17.5641 47.0135 17.8175 46.7047C18.174 46.2703 18.4328 45.7531 18.7086 45.2659L19.9138 43.1188L22.7639 38.0354C21.1246 38.2169 19.4783 37.9144 18.0211 37.1455C16.3936 36.287 15.0225 34.8451 14.2964 33.1446C14.0784 32.6338 13.9458 32.1133 13.7915 31.583C13.7689 31.5052 13.7524 31.5007 13.7915 31.4285C13.8333 31.5077 13.8556 31.5844 13.8859 31.6674C14.3938 33.0602 15.4075 34.1947 16.6036 35.0419C17.0186 35.3359 17.4506 35.6163 17.9186 35.8194C18.2103 35.946 19.0137 36.2607 19.308 36.1459C20.4334 36.469 21.5092 36.5922 22.6687 36.376C24.2361 36.0836 25.7305 35.1636 26.6366 33.8432C27.5525 32.5086 27.9253 30.6956 27.6288 29.1099C27.3459 27.5966 26.4536 26.2091 25.2582 25.253C24.9877 25.0365 24.6879 24.8895 24.4092 24.6926L24.3586 24.6562Z" fill="#1B8B7F"/>
<path d="M19.3082 36.1457L18.8795 35.9738C17.3281 35.3072 16.1433 34.0648 15.5305 32.4936C14.9276 30.9478 14.997 29.1765 15.6658 27.6624C16.3178 26.1863 17.6383 24.9547 19.1465 24.3871C20.9067 23.7246 22.6677 23.8933 24.3587 24.6561L24.4093 24.6925C24.688 24.8894 24.9878 25.0364 25.2583 25.2528C26.4537 26.209 27.346 27.5965 27.6289 29.1098C27.9254 30.6955 27.5526 32.5085 26.6367 33.8431C25.7306 35.1635 24.2362 36.0835 22.6688 36.3758C21.5093 36.5921 20.4335 36.4689 19.3082 36.1457Z" fill="url(#paint4_linear_241_215)"/>
<path d="M21.2023 25.1364C22.4367 25.0272 23.7794 25.5429 24.7234 26.3167C25.791 27.1917 26.4974 28.5199 26.6222 29.8963C26.7438 31.2363 26.3156 32.5346 25.454 33.5634C24.5129 34.6871 23.2352 35.2551 21.7982 35.3839C20.5775 35.4854 19.426 35.1453 18.4276 34.4406C17.381 33.702 16.5675 32.5062 16.3492 31.2328C16.1181 29.8839 16.4071 28.4646 17.1984 27.3437C17.9563 26.2703 19.1711 25.4454 20.4784 25.2248L21.2023 25.1364Z" fill="#F07624"/>
<path d="M23.091 28.7493C23.185 28.7476 23.2907 28.7579 23.3779 28.7193L23.2251 28.7108L23.2743 28.6715C23.5108 28.6502 23.7659 28.5798 24.0018 28.5388C24.5841 28.4378 25.1878 28.337 25.7466 28.1411C26.1995 29.2195 26.2615 30.4981 25.8108 31.5921C25.3087 32.8107 24.5036 33.7418 23.2713 34.2554C22.5218 34.5677 21.7059 34.6638 20.9007 34.5915C20.6681 34.5706 20.4153 34.5509 20.1928 34.4781C19.9728 34.4061 19.7592 34.3585 19.5436 34.2668C18.7817 33.9426 18.044 33.3793 17.5591 32.7024L18.6933 32.0155C18.8694 31.9069 19.1079 31.777 19.2358 31.6117C19.2917 31.5394 19.2886 31.5126 19.2834 31.428L19.1214 31.3927C19.2968 31.3812 19.4779 31.3644 19.6471 31.4239C20.389 31.6849 19.8318 32.7345 20.1169 33.265C20.1929 33.4064 20.3589 33.5388 20.511 33.5875C20.6886 33.6443 20.8914 33.6293 21.0763 33.6305C21.3982 33.6326 22.0123 33.7045 22.2835 33.5479C22.9166 33.1826 22.473 32.3995 22.6494 31.8391C22.9035 31.0321 23.8895 31.614 24.4234 31.3096C24.5636 31.2296 24.6681 31.0609 24.7052 30.9064C24.7404 30.7603 24.7199 30.5523 24.7211 30.3998C24.7237 30.0818 24.7779 29.6136 24.6995 29.3099C24.6799 29.234 24.631 29.1553 24.5864 29.0921C24.2638 28.6346 23.6054 28.8291 23.126 28.7553L23.091 28.7493Z" fill="#F8C941"/>
<path d="M17.5588 32.7026L17.2143 32.1611C16.6569 31.1229 16.5564 29.8287 16.9055 28.706C17.2789 27.505 18.0016 26.5769 19.1242 25.9954C20.2983 25.3873 21.6139 25.2533 22.8783 25.6582C24.197 26.0806 25.1169 26.9182 25.7463 28.1413C25.1876 28.3372 24.5838 28.438 24.0015 28.539C23.7656 28.58 23.5105 28.6504 23.2741 28.6717L23.2248 28.711L23.3776 28.7195C23.2904 28.758 23.1848 28.7478 23.0908 28.7495L23.029 28.7421C22.885 28.722 22.7767 28.6406 22.6947 28.523C22.6116 28.4037 22.6285 28.2437 22.6287 28.1054C22.6291 27.5848 22.7333 26.9795 22.0699 26.8147C21.8778 26.767 21.6257 26.7881 21.4261 26.7842C21.0825 26.7776 20.6062 26.6877 20.3027 26.8764C20.2181 26.9292 20.174 27.0013 20.129 27.0874L20.1088 27.1253C19.8955 27.5723 20.3389 28.4824 19.7228 28.7259C19.5937 28.777 19.4148 28.7645 19.2765 28.7635C18.7366 28.7589 18.317 28.6669 17.9882 29.1904L17.9822 30.3748C17.983 30.5404 17.9617 30.7514 18.0023 30.9117C18.0276 31.0114 18.0941 31.1128 18.1637 31.1874C18.3197 31.3545 18.562 31.4023 18.7815 31.4078L19.1212 31.3929L19.2832 31.4282C19.2884 31.5128 19.2914 31.5396 19.2355 31.6119C19.1076 31.7772 18.8691 31.9071 18.693 32.0157L17.5588 32.7026Z" fill="#F2D76A"/>
<path d="M19.1214 31.3929L18.7817 31.4078C18.5622 31.4023 18.32 31.3545 18.164 31.1874C18.0944 31.1128 18.0278 31.0114 18.0025 30.9117C17.9619 30.7514 17.9832 30.5404 17.9825 30.3748L17.9884 29.1904C18.3172 28.6669 18.7369 28.7589 19.2768 28.7635C19.415 28.7645 19.5939 28.777 19.723 28.7259C20.3392 28.4824 19.8958 27.5723 20.1091 27.1253L20.1292 27.0874C20.1743 27.0013 20.2183 26.9292 20.303 26.8764C20.6064 26.6877 21.0827 26.7776 21.4263 26.7842C21.626 26.7881 21.8781 26.767 22.0701 26.8147C22.7335 26.9795 22.6293 27.5848 22.6289 28.1054C22.6288 28.2437 22.6119 28.4037 22.695 28.523C22.7769 28.6406 22.8852 28.722 23.0292 28.7421L23.091 28.7495L23.126 28.7555C23.6054 28.8293 24.2637 28.6348 24.5864 29.0923C24.631 29.1555 24.6798 29.2342 24.6994 29.3101C24.7779 29.6138 24.7236 30.082 24.7211 30.4C24.7199 30.5525 24.7404 30.7605 24.7052 30.9066C24.6681 31.0611 24.5635 31.2298 24.4233 31.3098C23.8895 31.6142 22.9034 31.0323 22.6494 31.8393C22.473 32.3998 22.9166 33.1828 22.2834 33.5481C22.0123 33.7047 21.3982 33.6328 21.0763 33.6307C20.8914 33.6295 20.6886 33.6445 20.511 33.5877C20.3588 33.539 20.1929 33.4066 20.1169 33.2652C19.8318 32.7347 20.389 31.6851 19.6471 31.4241C19.4778 31.3646 19.2968 31.3814 19.1214 31.3929Z" fill="#0C182F"/>
<path d="M18.3823 30.2931L18.3985 29.3612C18.4236 29.3229 18.4404 29.2776 18.4739 29.2462C18.5516 29.1732 18.7468 29.1921 18.845 29.1912C19.2743 29.1878 19.798 29.2636 20.1383 28.9501C20.5509 28.5699 20.4403 27.7958 20.4458 27.2798L22.2072 27.2835C22.2515 27.7391 22.1082 28.369 22.3621 28.7686C22.735 29.356 23.5294 29.094 24.0964 29.2176C24.184 29.2877 24.1777 29.2872 24.1963 29.3989C23.8879 29.5311 23.5348 29.5955 23.2077 29.6711C21.6087 30.0406 20.0054 30.1215 18.3823 30.2931Z" fill="#41607C"/>
<path d="M24.1966 29.3987C24.2109 29.6846 24.2683 30.7665 24.1245 30.9473C24.0368 31.0576 23.3942 31.0018 23.2214 30.9971C22.9162 31.0394 22.6265 31.082 22.423 31.3373C22.1498 31.6801 22.2186 32.2521 22.216 32.6634C22.2154 32.7583 22.2329 33.0068 22.1655 33.0796C22.1504 33.0959 22.0509 33.1143 22.0288 33.1166C21.6789 33.154 21.2731 33.1268 20.9202 33.1086C20.7767 33.1012 20.614 33.111 20.4907 33.0296C20.4299 32.8967 20.4417 32.7466 20.4398 32.6028C20.4313 31.9828 20.5111 31.4517 19.9207 31.0622C19.7821 31.0342 19.6412 31.0089 19.4995 31.0058C19.2952 31.0014 18.6304 31.0803 18.4943 30.9552C18.3333 30.8071 18.3815 30.4937 18.3826 30.2929C20.0056 30.1213 21.609 30.0404 23.208 29.6709C23.535 29.5953 23.8881 29.5309 24.1966 29.3987Z" fill="#23364F"/>
<defs>
<linearGradient id="paint0_linear_241_215" x1="43.7725" y1="13.5592" x2="40.6757" y2="67.5713" gradientUnits="userSpaceOnUse">
<stop stop-color="#0D3246"/>
<stop offset="1" stop-color="#1D4B58"/>
</linearGradient>
<linearGradient id="paint1_linear_241_215" x1="36.2005" y1="40.2335" x2="30.9695" y2="52.4104" gradientUnits="userSpaceOnUse">
<stop stop-color="#F58632"/>
<stop offset="1" stop-color="#FFFF7D"/>
</linearGradient>
<linearGradient id="paint2_linear_241_215" x1="49.0542" y1="31.5631" x2="45.9418" y2="26.1491" gradientUnits="userSpaceOnUse">
<stop stop-color="#7BB6CD"/>
<stop offset="1" stop-color="#ABC3DB"/>
</linearGradient>
<linearGradient id="paint3_linear_241_215" x1="20.5129" y1="50.9659" x2="42.439" y2="17.102" gradientUnits="userSpaceOnUse">
<stop stop-color="#36B5A3"/>
<stop offset="1" stop-color="#87DCCC"/>
</linearGradient>
<linearGradient id="paint4_linear_241_215" x1="16.0755" y1="26.9717" x2="26.7762" y2="33.4738" gradientUnits="userSpaceOnUse">
<stop stop-color="#05152F"/>
<stop offset="1" stop-color="#072438"/>
</linearGradient>
</defs>
</svg>
