<svg width="247" height="258" viewBox="0 0 247 258" fill="none" xmlns="http://www.w3.org/2000/svg">
<g clip-path="url(#clip0_232_283)">
<path d="M222.794 201.896L225.244 203.947L221.55 209.167C218.663 213.011 215.558 216.68 212.23 220.15C193.914 239.248 168.749 251.765 142.707 256.018C114.895 260.561 85.8298 255.575 61.3244 241.636C57.9066 239.692 54.4617 237.648 51.2695 235.348C44.608 230.549 38.5819 225.099 32.9673 219.121C29.3159 215.234 25.7058 211.012 22.7852 206.54C23.3018 205.639 23.7973 204.538 24.5578 203.823L24.9112 204.05L25.1038 203.842C25.4986 204.623 26.1788 205.384 26.7573 206.046C27.7275 207.774 29.2468 209.368 30.5101 210.886C35.3569 216.713 40.3776 222.03 46.2401 226.856C46.6405 227.206 47.6553 228.278 48.147 228.318C48.2672 228.711 48.4161 228.936 48.7768 229.139L49.4535 229.447C49.943 229.962 52.7026 231.784 52.7804 232.089C53.1276 232.882 54.1351 233.489 54.8829 233.867L56.5004 234.712C57.3883 235.296 58.2622 235.92 59.2358 236.354C68.2677 241.961 78.0799 246.319 88.2656 249.355C92.2147 250.533 96.4415 251.65 100.551 252.058L100.723 251.971C101.096 252.236 101.274 252.237 101.714 252.243L104.948 252.605C105.366 252.899 105.79 252.913 106.261 253.052C106.998 252.988 107.881 253.184 108.621 253.266L113.597 253.793C116.481 254.071 119.358 254.149 122.254 254.149C126.627 254.148 130.974 253.858 135.328 253.49C137.101 253.34 138.964 252.897 140.729 252.929C141.048 252.943 141.334 252.97 141.641 252.858C141.869 252.776 141.796 252.801 141.901 252.548C142.674 252.744 144.185 252.103 145.073 252.074C145.345 252.057 145.603 252.006 145.871 251.956L146.045 251.549L146.277 251.774C151.962 250.832 157.599 249.122 163.025 247.214C168.109 245.427 173.09 243.437 177.907 241.011L187.813 235.496C188.199 235.328 188.503 235.136 188.919 235.022C189.237 234.988 189.394 234.907 189.645 234.726L190.221 234.337C191.003 233.871 191.561 233.59 191.915 232.714L191.905 232.629C193.59 231.705 194.975 230.266 196.621 229.284C196.787 229.246 196.832 229.248 196.994 229.142C197.29 228.951 197.562 228.538 197.653 228.208L197.804 228.296C199.604 227.2 201.423 225.66 202.939 224.199C207.351 220.007 211.61 215.921 215.499 211.216C216.494 210.012 217.59 208.806 218.409 207.474C219.101 206.527 220.101 204.674 221.061 204.044L221.112 204.187L221.497 204.013C221.939 203.419 222.296 203.032 222.351 202.278L222.794 201.896Z" fill="#040723"/>
<path d="M175.175 20.9073C205.937 37.1066 230.525 64.9141 240.879 98.3092C250.321 128.762 247.967 162.729 232.992 191.054C230.671 195.443 228.226 199.969 225.244 203.947L222.794 201.896L218.713 198.047L218.834 197.872C221.926 193.281 224.586 188.152 226.929 183.139C233.443 169.199 237.256 154.168 237.715 138.76C237.987 129.658 237.034 120.588 235.192 111.68C230.503 89.0036 218.521 68.0315 202.169 51.7446L195.793 45.8282C194.618 44.8103 193.455 43.727 192.154 42.8721L193.374 39.7064C192.44 40.3908 192.28 41.0342 191.042 41.403L190.892 41.4461C189.716 40.3509 188.087 39.4551 186.741 38.5535C181.654 35.1457 176.493 32.1096 171.09 29.2325C173.194 26.9757 174.12 23.9835 175.09 21.1517L175.175 20.9073Z" fill="#053849"/>
<path d="M192.154 42.8721C193.455 43.727 194.618 44.8102 195.793 45.8281L202.169 51.7446C218.521 68.0315 230.503 89.0036 235.192 111.68C237.034 120.588 237.987 129.658 237.715 138.76C237.256 154.168 233.443 169.199 226.929 183.139C224.586 188.152 221.926 193.281 218.834 197.872L218.713 198.047L210.918 192.717C212.384 189.803 214.328 187.092 215.869 184.201C220.091 176.273 223.093 168.145 225.382 159.483C225.708 157.649 226.278 155.85 226.584 153.994C227.321 149.525 227.968 144.946 228.21 140.419C228.689 131.487 227.849 122.385 226.021 113.646L223.153 102.852L195.435 111.382C195.264 111.217 195.336 111.301 195.214 111.138C196.065 107.18 197.04 103.002 197.335 98.9613C196.976 98.3791 196.41 97.9086 195.929 97.4263C195.025 96.5204 194.106 95.6207 193.291 94.6318C192.507 93.6795 191.763 92.66 191.086 91.628C190.527 90.7758 190.015 89.836 189.284 89.1193C189.094 88.9325 189.188 88.3059 189.193 88.0185C189.297 82.0347 189.458 75.7869 188.424 69.8742C188.311 69.2283 188.282 68.3276 187.926 67.7723L187.163 67.6763C186.906 67.3176 186.947 66.8325 186.908 66.3948L186.552 63.3165C185.974 59.6229 185.403 55.7698 183.927 52.3135L185.813 50.4401C188.164 48.1622 190.273 45.5486 192.154 42.8721Z" fill="#07F6E4"/>
<path d="M185.813 50.4401C188.58 51.7871 191.233 54.4409 193.487 56.4946C206.715 68.5464 216.765 84.2261 222.611 101.108L223.153 102.852L195.435 111.382C195.264 111.217 195.336 111.301 195.214 111.138C196.065 107.18 197.04 103.002 197.335 98.9612C196.976 98.379 196.41 97.9086 195.929 97.4262C195.025 96.5203 194.106 95.6206 193.291 94.6318C192.507 93.6795 191.763 92.66 191.086 91.628C190.527 90.7757 190.015 89.8359 189.284 89.1193C189.094 88.9325 189.188 88.3058 189.193 88.0184C189.297 82.0347 189.458 75.7869 188.424 69.8742C188.311 69.2283 188.282 68.3275 187.926 67.7722L187.163 67.6762C186.906 67.3175 186.947 66.8324 186.908 66.3948L186.552 63.3164C185.974 59.6228 185.403 55.7698 183.927 52.3134L185.813 50.4401Z" fill="#0CBCB1"/>
<path d="M22.785 206.54C22.0177 205.171 20.9291 203.888 20.0351 202.593L16.7179 197.333C11.2942 188.33 7.23924 178.827 4.19581 168.778C2.48204 163.119 1.33821 157.145 0.552964 151.29C-2.91348 125.442 1.75321 98.7532 14.0476 75.718C24.5812 55.9813 40.5252 38.9721 59.7802 27.5203C69.1867 21.9257 79.2435 17.7118 89.7044 14.5333C89.337 15.331 88.5499 15.755 87.874 16.3153L83.0055 20.1695C80.193 22.4523 77.6002 24.9615 75.2011 27.6754C73.9706 29.0675 72.876 30.5973 71.5799 31.926C68.9694 35.5301 66.4618 39.3785 64.3897 43.3224L61.9152 48.5588C60.775 49.1225 59.8597 50.0924 58.8793 50.8929L54.4786 54.4588C39.8543 67.0236 29.2862 83.3481 23.1289 101.566C18.1234 116.376 16.8213 132.723 18.8722 148.184C19.1686 150.419 19.3975 152.667 19.8979 154.87L22.2534 164.321C23.4614 168.071 24.7266 171.855 26.266 175.484C28.024 179.629 30.124 183.629 32.3325 187.549L35.3833 192.542L29.8145 196.134C28.9827 196.704 28.0438 197.251 27.2836 197.908C26.049 198.946 24.0003 200.304 23.8601 202.044C23.8077 202.693 24.0542 203.017 24.4101 203.528C24.5324 203.704 24.4909 203.626 24.5576 203.823C23.7971 204.538 23.3016 205.639 22.785 206.54Z" fill="#053849"/>
<path d="M27.284 197.908C25.7121 195.896 24.5184 193.281 23.2622 191.042C14.6553 175.7 9.2844 157.947 8.59433 140.32C8.1452 128.848 9.17803 117.312 11.964 106.164C16.5101 87.9729 25.9963 70.4062 38.7641 56.6456C42.8635 52.2275 47.2425 48.0076 51.9603 44.2514C56.5435 40.602 61.5018 37.3653 66.5664 34.4285L69.934 32.554C70.4615 32.2801 70.9749 31.9477 71.5803 31.926C68.9699 35.5301 66.4622 39.3786 64.3902 43.3224L61.9156 48.5589C60.7755 49.1226 59.8601 50.0925 58.8797 50.8929L54.479 54.4588C39.8547 67.0236 29.2866 83.3482 23.1293 101.566C18.1238 116.376 16.8217 132.723 18.8726 148.184C19.1691 150.419 19.398 152.667 19.8983 154.87L22.2538 164.321C23.4618 168.071 24.727 171.855 26.2664 175.485C28.0244 179.629 30.1244 183.629 32.3329 187.549L35.3838 192.542L29.815 196.134C28.9831 196.704 28.0442 197.251 27.284 197.908Z" fill="#07F6E4"/>
<path d="M89.7047 14.5333C91.6243 13.9528 93.2351 13.0153 95.0186 12.1416L100.326 9.84012C111.292 5.52971 124.041 4.1177 135.7 5.95715C138.827 6.45048 141.984 7.10409 145.02 8.00598L148.83 9.22974L151.167 10.1234C151.384 10.2096 151.827 10.4587 152.03 10.4711C152.259 10.4851 153.038 10.0788 153.278 9.98134C156.97 8.48654 160.973 6.38242 163.994 3.7792C165.24 2.70566 166.086 1.39338 167.165 0.179199C166.675 5.17958 164.854 10.0586 162.075 14.2359C161.364 15.3048 160.522 16.2679 159.795 17.3139C165.528 15.5406 172.32 13.877 175.372 8.15086L175.745 7.42358C175.993 11.9902 176.425 16.4243 175.175 20.9072L175.09 21.1515C174.12 23.9834 173.194 26.9756 171.09 29.2323C176.493 32.1095 181.654 35.1456 186.741 38.5534C188.087 39.4549 189.716 40.3508 190.892 41.446L191.042 41.4029C192.28 41.0341 192.44 40.3907 193.374 39.7063L192.154 42.872C190.273 45.5485 188.164 48.1621 185.813 50.44L183.927 52.3134C185.402 55.7697 185.974 59.6228 186.552 63.3164L186.907 66.3947C186.947 66.8324 186.906 67.3175 187.163 67.6762L187.926 67.7722C188.282 68.3275 188.311 69.2282 188.424 69.8741C189.457 75.7868 189.297 82.0346 189.193 88.0184C189.188 88.3058 189.094 88.9324 189.284 89.1192C190.015 89.8359 190.527 90.7757 191.086 91.6279C191.763 92.6599 192.507 93.6794 193.291 94.6317C194.106 95.6206 195.025 96.5202 195.929 97.4262C196.41 97.9085 196.976 98.379 197.335 98.9611C197.039 103.002 196.064 107.18 195.214 111.138C195.336 111.301 195.264 111.217 195.435 111.382L223.153 102.852L226.021 113.646C227.849 122.385 228.689 131.487 228.21 140.419C227.967 144.945 227.321 149.525 226.584 153.994C226.278 155.85 225.708 157.649 225.382 159.483C223.093 168.144 220.091 176.272 215.868 184.201C214.328 187.092 212.384 189.803 210.918 192.717L218.713 198.047L222.794 201.896L222.351 202.278C222.296 203.032 221.939 203.419 221.497 204.013L221.112 204.187L221.061 204.044C220.101 204.674 219.101 206.527 218.409 207.474C217.59 208.806 216.494 210.012 215.499 211.217C211.61 215.921 207.351 220.007 202.939 224.199C201.424 225.66 199.604 227.2 197.804 228.296L197.653 228.208C197.562 228.538 197.291 228.951 196.994 229.142C196.832 229.248 196.787 229.246 196.621 229.284C194.975 230.266 193.59 231.705 191.905 232.629L191.915 232.714C191.561 233.59 191.003 233.871 190.221 234.337L189.645 234.726C189.394 234.907 189.237 234.988 188.919 235.022C188.504 235.136 188.2 235.328 187.813 235.496L177.907 241.011C173.09 243.437 168.109 245.427 163.025 247.214C157.599 249.122 151.962 250.832 146.277 251.774L146.046 251.549L145.871 251.956C145.603 252.006 145.345 252.057 145.073 252.074C144.185 252.103 142.674 252.744 141.901 252.548C141.796 252.801 141.869 252.776 141.641 252.858C141.334 252.97 141.048 252.943 140.729 252.929C138.964 252.897 137.101 253.34 135.328 253.49C130.974 253.858 126.627 254.148 122.255 254.149C119.359 254.149 116.481 254.071 113.597 253.793L108.621 253.266C107.881 253.184 106.998 252.988 106.261 253.052C105.79 252.913 105.366 252.899 104.948 252.605L101.714 252.243C101.274 252.237 101.096 252.236 100.723 251.971L100.551 252.058C96.4416 251.65 92.2148 250.533 88.2657 249.355C78.08 246.319 68.2678 241.961 59.2359 236.354C58.2622 235.92 57.3884 235.296 56.5005 234.712L54.8829 233.867C54.1352 233.489 53.1277 232.882 52.7805 232.089C52.7027 231.784 49.9431 229.962 49.4535 229.447L48.7769 229.139C48.4162 228.936 48.2673 228.711 48.1471 228.318C47.6554 228.278 46.6405 227.206 46.2402 226.856C40.3777 222.03 35.357 216.713 30.5102 210.887C29.2469 209.368 27.7275 207.774 26.7574 206.046C26.1789 205.384 25.4987 204.623 25.1038 203.842L24.9113 204.05L24.5579 203.823C24.4912 203.626 24.5327 203.704 24.4103 203.528C24.0545 203.017 23.808 202.693 23.8603 202.044C24.0005 200.304 26.0493 198.946 27.2838 197.908C28.044 197.251 28.983 196.704 29.8148 196.134L35.3836 192.542L32.3327 187.549C30.1242 183.629 28.0243 179.629 26.2663 175.484C24.7269 171.855 23.4616 168.071 22.2537 164.321L19.8982 154.869C19.3978 152.667 19.1689 150.419 18.8725 148.184C16.8216 132.723 18.1236 116.376 23.1291 101.566C29.2865 83.3481 39.8545 67.0235 54.4788 54.4587L58.8795 50.8928C59.86 50.0924 60.7753 49.1225 61.9155 48.5588L64.39 43.3223C66.4621 39.3785 68.9697 35.53 71.5801 31.9259C72.8763 30.5973 73.9709 29.0675 75.2014 27.6754C77.6005 24.9615 80.1933 22.4522 83.0058 20.1694L87.8743 16.3153C88.5501 15.755 89.3372 15.331 89.7047 14.5333Z" fill="#04040A"/>
<path d="M77.2759 46.4355C77.392 46.1695 77.8321 45.8338 78.0545 45.6104C79.6655 43.9903 81.9231 41.9952 84.0681 41.1381C82.2236 42.7077 80.1318 44.323 78.607 46.2124L78.5251 46.3165L77.69 46.8073L77.2759 46.4355Z" fill="#74B6D3"/>
<path d="M77.2757 46.4355L77.6898 46.8073C73.7253 51.1164 71.504 56.5212 71.6196 62.3943C71.5992 62.7815 71.6556 63.1297 71.4311 63.4529L71.2502 61.3038C71.0839 55.5896 73.3738 50.5391 77.2757 46.4355Z" fill="#FEFEFE"/>
<path d="M77.6898 46.8073L78.5249 46.3165L78.4584 46.4244C77.8883 47.3298 77.1615 48.1202 76.573 49.0142C75.1475 51.1788 73.8416 54.044 73.1313 56.5353C72.5842 58.4537 72.4201 60.5717 71.6195 62.3943C71.504 56.5212 73.7252 51.1164 77.6898 46.8073Z" fill="#285478"/>
<path d="M59.0562 86.9607C58.6816 85.7777 58.6415 84.4271 58.5653 83.1925C58.3624 79.9013 58.4571 76.5813 58.7069 73.2964C58.7801 72.3327 58.7665 71.1876 59.0573 70.2619C59.195 69.8235 59.4079 69.5144 59.8286 69.3162L60.2813 69.5076C59.8923 71.9577 59.6404 74.5084 59.4909 76.9851C59.4256 78.0719 59.3884 86.5662 59.1758 86.9184L59.0562 86.9607Z" fill="#F3513C"/>
<path d="M39.0557 194.603L38.9795 194.232C40.1983 193.283 41.9447 192.63 43.3645 192.019L45.1482 195C43.6915 195.66 42.1114 196.272 40.805 197.203C40.2596 196.302 39.734 195.412 39.0557 194.603Z" fill="#F7DF6F"/>
<path d="M77.4445 55.6796C77.8324 54.9212 78.8812 53.7688 79.5508 53.2186C78.9888 54.3932 78.2669 55.47 77.7171 56.6595C76.6572 58.9526 75.8664 61.3274 75.0842 63.7235C74.8303 64.5014 74.3866 65.4307 74.3291 66.2428C74.2692 67.0904 74.4411 67.9242 74.5418 68.7606L74.8634 71.8469C75.0253 73.2002 75.0278 74.7457 75.3418 76.0532C75.4178 76.3691 75.4183 76.8442 75.2418 77.1275L75.1582 77.2259C74.8179 76.2273 73.6622 66.4084 73.8738 65.4049L74.1621 64.1712C73.9451 63.8816 73.7246 63.8629 73.3945 63.7403C74.0161 60.7099 75.6242 58.1169 77.4445 55.6796Z" fill="#285478"/>
<path d="M77.4445 55.6796C77.4917 56.7848 76.3562 58.5491 75.9193 59.5792L74.1621 64.1712C73.9451 63.8816 73.7246 63.8629 73.3945 63.7403C74.0161 60.7099 75.6242 58.1169 77.4445 55.6796Z" fill="#74B6D3"/>
<path d="M200.665 194.406C201.292 193.241 201.869 192.393 202.864 191.508L207.271 193.813L205.305 197.113C204.69 196.785 204.129 196.348 203.512 196.012C202.565 195.495 201.506 195.089 200.665 194.406Z" fill="#F8CEAB"/>
<path d="M172.056 63.314L172.324 63.4021L170.673 80.6675C170.537 81.8788 170.614 83.6122 170.144 84.7207L169.923 75.824C170.121 72.8728 170.745 69.939 171.17 67.0141C171.306 66.0781 171.215 64.9051 171.469 64.0173C171.569 63.6705 171.796 63.5404 172.056 63.314Z" fill="#FEFEFE"/>
<path d="M73.3949 63.7402C73.725 63.8628 73.9455 63.8815 74.1624 64.1711L73.8741 65.4048C73.6626 66.4083 74.8182 76.2272 75.1586 77.2259L76.2093 85.0032C76.5437 87.0504 77.1669 89.3663 77.1273 91.4238C76.6511 90.4113 76.5141 88.9463 76.2744 87.8332L73.2164 70.1003C73.0581 68.897 72.4904 66.5537 72.9257 65.4601C73.1484 64.8999 73.2617 64.3275 73.3949 63.7402Z" fill="#FEFEFE"/>
<path d="M42.5727 203.258C43.4457 205.057 43.9898 207.135 44.5251 209.062C45.3922 212.182 46.2319 215.355 46.774 218.549L48.1469 228.318C47.6552 228.278 46.6403 227.207 46.24 226.856C46.3583 225.499 46.2018 224.1 46.1063 222.744C45.8242 218.748 45.1804 214.829 44.3055 210.923L43.1767 206.428C42.9006 205.404 42.4387 204.322 42.5727 203.258Z" fill="#053849"/>
<path d="M45.7271 194.419L43.9604 191.712L52.8036 187.868C53.1573 188.6 53.4868 189.36 53.9419 190.036L54.0086 190.132L53.8597 190.42L45.7271 194.419Z" fill="#74B6D3"/>
<path d="M191.916 232.714C191.335 233.007 190.805 233.432 190.275 233.807C190.161 232.602 190.535 231.055 190.674 229.828C191.676 220.982 193.54 212.22 196.619 203.854C196.683 204.01 196.848 204.291 196.863 204.447C196.897 204.787 196.574 205.523 196.471 205.871L195.617 209.082C194.413 214.079 193.198 219.216 192.489 224.307L191.994 229.672C191.924 230.501 191.583 231.872 191.905 232.629L191.916 232.714Z" fill="#E96426"/>
<path d="M92.5461 165.944L92.717 165.948C91.752 167.323 91.0151 168.781 90.2769 170.284C88.9742 172.937 87.7183 175.86 87.3942 178.824C87.1802 180.782 87.3527 182.806 87.5243 184.764L86.5567 183.486C85.9377 182.505 84.8176 180.876 84.7778 179.686C84.7517 178.905 84.9994 178.081 85.1949 177.332C86.3671 172.848 89.3038 169.153 92.5461 165.944Z" fill="#082E34"/>
<path d="M191.166 190.568L192.767 187.605L201.932 191.096C201.153 192.009 200.263 193.001 199.726 194.082L191.872 190.771L191.166 190.568Z" fill="#74B6D3"/>
<path d="M80.0269 171.04C81.198 170.806 82.11 169.979 83.0172 169.246L87.6013 165.372C88.7309 164.504 89.9909 163.739 91.2285 163.033C92.22 162.467 93.2539 161.873 94.397 161.722C92.7443 163.225 90.9141 164.377 89.3395 166.018C88.3875 167.009 87.5305 168.117 86.7437 169.243C86.2599 169.935 85.7635 170.822 85.1587 171.403C84.104 172.418 82.5413 173.272 81.3382 174.123C80.8543 173.121 80.3539 172.106 80.0269 171.04Z" fill="#628FAB"/>
<path d="M181.101 54.5924L182.545 53.3302C183.611 58.1659 184.745 63.0466 184.914 68.0165C184.753 68.1417 184.648 68.2255 184.454 68.2968L183.377 68.7963C182.535 65.9273 182.054 62.901 181.338 59.9923C180.978 58.529 180.739 56.9555 179.787 55.7423C180.106 55.196 180.586 54.9316 181.101 54.5924Z" fill="#FEFEFE"/>
<path d="M179.787 55.7425C180.106 55.1961 180.586 54.9317 181.101 54.5925C181.663 56.121 182.061 57.6603 182.421 59.2468C182.727 60.5909 183.839 67.6798 184.454 68.297L183.377 68.7964C182.535 65.9274 182.054 62.9011 181.338 59.9925C180.978 58.5291 180.739 56.9556 179.787 55.7425Z" fill="#F19B0E"/>
<path d="M65.086 169.865C65.0049 170.77 63.7551 171.896 63.1785 172.572L60.4214 175.989L56.9594 180.802C56.4281 181.589 55.7747 182.423 55.4208 183.3C56.0937 185.961 56.8576 188.599 57.9509 191.123L59.5893 194.557C59.9215 195.204 60.4127 195.93 60.5516 196.639C59.2177 195.041 58.118 193.062 57.1118 191.245C55.7061 188.705 54.315 186.041 53.4434 183.265C53.7138 182.064 54.8322 180.738 55.5642 179.783C58.3783 176.114 61.5144 172.8 65.086 169.865Z" fill="#FEFEFE"/>
<path d="M152.318 165.66C155.616 168.24 157.806 171.52 159.592 175.253C160.145 176.409 160.739 177.537 161.149 178.756C161.259 179.084 161.45 179.513 161.498 179.849C161.541 180.151 161.12 180.711 160.965 180.981L159.767 183.297L158.774 185.162C158.55 184.449 158.615 183.398 158.544 182.636C158.449 181.613 158.247 180.572 158.05 179.564C157.393 176.204 156.286 172.252 154.634 169.266C153.938 168.008 152.991 166.932 152.318 165.66Z" fill="#082E34"/>
<path d="M179.786 55.7424C180.739 56.9556 180.978 58.529 181.338 59.9924C182.054 62.9011 182.535 65.9273 183.377 68.7964L181.232 69.6567C180.422 68.6836 179.906 66.8707 179.335 65.7129L176.8 60.8083C177.871 59.762 178.649 58.4867 179.286 57.1402C179.465 56.7633 179.734 56.2839 179.783 55.8729L179.786 55.7424Z" fill="#DF251B"/>
<path d="M166.465 161.021C167.063 162.27 167.63 163.731 167.65 165.129L167.446 164.521C167.043 165.437 167.006 166.769 166.773 167.772C166.347 169.604 165.51 171.502 164.687 173.187L162.154 169.199C162.626 170.877 162.786 172.274 162.638 174.008C161.476 172.782 160.503 171.254 159.473 169.909C157.577 167.435 155.676 165.237 153.415 163.078C154.314 163.395 155.099 163.883 155.959 164.283C157.896 165.183 160.309 165.967 161.986 167.272C163.081 168.123 163.99 169.268 165.042 170.187C165.948 167.856 166.407 165.681 166.382 163.165C166.377 162.637 166.166 161.659 166.382 161.186L166.465 161.021Z" fill="#628FAB"/>
<path d="M146.477 157.771C147.129 155.596 147.955 153.315 149.507 151.608C149.095 154.285 149.111 157.042 149.193 159.744C149.294 163.081 149.54 166.4 150.238 169.673C150.446 170.646 150.666 171.95 151.14 172.821C150.467 173.436 149.742 174.027 148.971 174.515C148.64 173.297 148.511 172.007 148.278 170.766L146.774 161.657C146.625 160.362 146.703 159.051 146.477 157.771Z" fill="#FEFEFE"/>
<path d="M74.8284 31.6993L74.9282 31.9447C73.5464 35.1511 71.5874 38.0681 69.8726 41.0993C66.2253 47.5464 63.124 54.4688 61.5347 61.7229C61.3082 62.7568 60.6066 64.9246 60.9765 65.9271C61.1783 66.474 61.5998 66.8647 62.1311 67.0806C62.5458 67.2489 63.1831 67.3032 63.6076 67.1521C64.1036 66.9984 64.55 66.8821 65.068 66.8325C64.6753 67.31 64.3059 67.763 63.7103 67.9857C62.9979 68.2519 62.2048 68.2826 61.5111 67.9398C60.8968 67.6364 59.9614 66.8409 59.832 66.1334C59.5665 64.6817 60.0598 62.8135 60.3248 61.3742C61.3475 55.823 63.4562 50.3959 65.9826 45.3645C68.4918 40.3672 71.217 35.967 74.8284 31.6993Z" fill="#FEFEFE"/>
<path d="M25.104 203.842C25.6841 203.18 26.4552 202.58 27.1281 202.007C29.3422 200.12 31.7783 198.538 34.2376 196.994C35.6113 196.133 37.1165 195.113 38.6066 194.476L38.9293 194.771C39.3909 195.644 39.8772 196.468 40.2341 197.393L26.7576 206.046C26.1791 205.384 25.4989 204.623 25.104 203.842Z" fill="#74B6D3"/>
<path d="M204.855 201.238C204.878 201.925 204.675 202.469 204.519 203.123L203.804 206.298C202.996 210.35 202.479 214.448 202.479 218.585C202.478 220.418 202.517 222.409 202.939 224.199C201.424 225.66 199.604 227.2 197.804 228.296L197.653 228.208L199.306 219.522C200.291 214.962 201.588 210.479 203.065 206.056C203.587 204.494 204.023 202.662 204.855 201.238Z" fill="#132847"/>
<path d="M141.9 252.548L145.86 232.51C146.679 231.759 148.017 231.068 149 230.518C147.723 235.293 146.821 240.312 146.027 245.188C145.657 247.461 145.231 249.776 145.073 252.074C144.185 252.103 142.674 252.745 141.9 252.548Z" fill="#29293A"/>
<path d="M60.2812 69.5076L60.4998 69.6456C61.6706 70.3503 62.9996 70.3072 64.3095 70.2624L62.3335 86.1624C61.5394 86.3267 60.784 86.5414 60.0214 86.8169C59.9048 86.859 59.3754 87.1079 59.2924 87.0919C59.2037 87.0748 59.1348 87.0043 59.0562 86.9607L59.1758 86.9184C59.3884 86.5661 59.4255 78.0718 59.4909 76.9851C59.6403 74.5084 59.8923 71.9577 60.2812 69.5076Z" fill="#9A0D0F"/>
<path d="M68.1518 93.9536C67.8307 92.1144 67.3102 89.4099 67.8841 87.5818L67.9527 87.3785C68.7485 84.9587 70.9876 82.8744 73.1641 81.6526L75.7241 93.5685C74.2403 92.7131 72.8964 91.9376 71.1178 92.4237C70.2648 92.6569 68.7216 93.2513 68.1518 93.9536Z" fill="#F3513C"/>
<path d="M101.714 252.243L98.0039 230.631C98.6461 230.983 100.831 231.85 101.138 232.39L104.948 252.605L101.714 252.243Z" fill="#29293A"/>
<path d="M57.4195 126.127C57.0089 125.658 56.7195 125.009 56.4396 124.453C55.2984 122.182 54.7964 119.779 54.1474 117.343L51.7743 107.746L50.1836 101.064C50.6086 99.9059 51.3867 98.8514 52.0704 97.8305C53.9651 95.0013 56.1533 92.1537 58.5736 89.7573C59.4968 88.843 60.2572 88.487 61.5916 88.4921L61.8558 88.7749C61.9208 90.321 61.9781 91.6727 62.5322 93.1445L60.5767 92.5499C60.2494 92.5458 59.9443 92.6152 59.6231 92.673C56.3957 94.3864 52.7097 97.6751 51.2698 101.094C51.4217 102.355 51.7892 103.549 52.0815 104.781L53.2711 110.004C53.4208 110.636 53.8447 111.703 53.804 112.293L54.6372 115.638C56.035 121.312 56.9588 126.909 62.3567 130.215C64.4049 131.469 66.1783 131.48 68.5132 131.575L68.5512 131.706L68.4397 131.852C67.3204 132.171 65.6563 132.342 64.5155 132.002C61.7359 131.173 58.7387 128.714 57.4195 126.127Z" fill="#FEFEFE"/>
<path d="M206.327 197.711C206.851 196.735 207.489 195.184 208.305 194.464C210.838 195.858 219.652 201.652 221.061 204.044C220.101 204.674 219.101 206.527 218.409 207.474C216.413 205.515 214.416 203.668 212.21 201.939L206.327 197.711Z" fill="#74B6D3"/>
<path d="M171.09 29.2324C176.493 32.1096 181.654 35.1456 186.741 38.5535C188.087 39.455 189.716 40.3509 190.892 41.4461C188.641 41.8018 185.377 41.5692 183.304 40.6245C180.299 39.2552 177.804 36.7449 175.134 34.833C173.258 33.4903 171.256 32.4417 169.131 31.5545C169.514 30.7549 170.489 29.9092 171.09 29.2324Z" fill="#07F6E4"/>
<path d="M78.9712 26.9789C80.2459 25.5256 81.7281 24.2154 83.165 22.9258C88.6478 18.005 94.8282 14.255 101.764 11.756C114.736 7.0827 129.675 6.26099 143.029 9.84794C144.979 10.3716 147.212 10.8614 149.037 11.7224C148.728 11.8665 148.534 11.8437 148.207 11.7936C146.394 11.5158 144.573 10.9662 142.783 10.5539L135.836 9.29463C128.084 8.20545 120.411 8.5676 112.729 10.0126C103.035 11.8361 93.9619 16.0891 85.892 21.6975L81.8452 24.7804C80.9497 25.5066 80.0186 26.5063 78.9712 26.9789Z" fill="#FEFEFE"/>
<path d="M96.3926 154.864L96.516 154.594L97.4734 155.705C97.6033 157.124 98.1151 158.534 98.4308 159.924L101.46 172.859C101.799 174.435 102.349 176.321 102.256 177.926C99.5956 176.808 96.816 175.141 94.7119 173.161C95.5646 171.528 95.8361 169.365 96.0636 167.555C96.6023 163.271 96.6595 159.17 96.3926 154.864Z" fill="#FEFEFE"/>
<path d="M182.55 89.0032L182.338 88.5987C182.422 88.4503 182.449 88.2798 182.632 88.2494C182.987 88.1906 183.433 88.3506 183.785 88.4265C184.826 88.651 186.006 88.8137 186.972 89.2565C189.634 92.7299 191.893 96.7624 195.471 99.4129C194.703 104.891 193.51 110.284 192.166 115.649C192.003 116.299 191.808 117.81 191.423 118.312C190.726 121.976 189.32 127.087 186.045 129.316C184.461 130.393 182.631 130.903 180.798 131.388C179.799 131.652 178.85 131.944 177.806 131.88L177.553 131.866C176.823 131.814 176.147 131.607 175.443 131.426C176.257 131.178 177.241 131.244 178.092 131.13C180.63 130.788 183.556 130.094 185.782 128.798C188.024 127.494 188.666 124.965 189.284 122.644L190.608 117.283L190.998 115.554L194.314 99.5534C192.339 98.6033 190.384 97.6732 188.687 96.2635C187.915 95.622 187.255 94.8563 186.585 94.1114L185.693 92.9327L185.691 92.9105C184.788 91.6391 183.746 90.0021 182.55 89.0032Z" fill="#FEFEFE"/>
<path d="M186.395 69.686L186.539 69.8287L187.084 87.352L182.97 86.2305C182.704 81.3956 182.055 76.6961 180.967 71.9786L186.395 69.686Z" fill="#5D6178"/>
<path d="M69.5646 111.25L74.1001 130.969L69.666 131.642L65.3662 112.779C66.7578 112.33 68.2679 111.934 69.5646 111.25Z" fill="#053849"/>
<path d="M61.8557 88.7749C67.6643 94.8994 67.2984 103.679 69.5644 111.25C68.2677 111.934 66.7576 112.33 65.366 112.779L60.5767 92.5498L62.5321 93.1445C61.978 91.6727 61.9208 90.321 61.8557 88.7749Z" fill="#285478"/>
<path d="M81.2075 120.602L83.6717 133.814C82.461 134.113 81.2555 134.37 80.0166 134.524C79.654 134.569 79.1037 134.681 78.7555 134.615C78.5233 134.571 78.116 134.307 77.905 134.184C76.4927 133.362 75.9191 131.945 75.5516 130.445L73.3979 121.18L81.2075 120.602Z" fill="#9A0D0F"/>
<path d="M177.555 108.849L180.289 93.1901L180.849 90.0317C180.91 89.715 180.932 89.2088 181.06 88.9377C181.104 88.8444 181.196 88.7823 181.264 88.7045C181.623 88.8932 181.957 89.0868 182.376 89.0361L182.55 89.0033C183.746 90.0022 184.788 91.6391 185.691 92.9105L185.693 92.9328C185.276 93.5751 185.195 94.3574 185.04 95.0965L184.219 98.8449L181.005 113.302C180.13 112.813 178.734 112.057 178.239 111.155L178.165 111.013C177.807 110.344 177.701 109.588 177.555 108.849Z" fill="#5D6178"/>
<path d="M69.1049 62.9073C69.5087 63.4938 69.4843 64.6964 69.6576 65.3989C69.8928 66.3526 70.4829 67.1975 70.6947 68.1205C71.0256 69.5627 71.1528 71.124 71.3294 72.5933L72.1783 80.2135C71.251 80.6948 70.35 81.2162 69.5418 81.8827C67.2639 83.762 66.0521 85.7446 65.7722 88.6815L65.7595 90.7048L64.3877 87.9599C64.4506 79.4873 65.8699 70.756 69.1049 62.9073Z" fill="#0CBCB1"/>
<path d="M174.914 62.5007L175.365 62.418C175.845 62.8385 176.145 63.6338 176.451 64.1954L179.465 70.2284C179.308 70.325 179.098 70.3822 179.052 70.5731C178.838 71.4459 179.298 73.0782 179.453 73.9654C180.009 77.1384 180.62 80.2862 180.937 83.495C181.036 84.4971 181.307 85.976 180.789 86.8418C180.278 86.8301 179.915 86.4763 179.495 86.1959L172.55 81.511L173.82 70.0598L174.166 65.1357C174.214 64.4527 174.158 63.6045 174.339 62.9527C174.401 62.732 174.722 62.6167 174.914 62.5007Z" fill="#0CBCB1"/>
<path d="M173.771 118.34L172.209 126.681C171.919 128.2 171.71 129.942 171.128 131.373C170.858 132.037 170.321 132.657 169.771 133.105C167.726 134.772 164.758 134.06 162.345 133.831C162.286 133.137 162.596 132.259 162.724 131.564L164.633 122.644L166.179 115.463C166.942 115.845 167.863 116.045 168.676 116.313L172.198 117.643C172.669 117.833 173.373 118.045 173.771 118.34Z" fill="#9A0D0F"/>
<path d="M64.1318 113.028L68.5132 131.575C66.1784 131.48 64.4049 131.469 62.3567 130.215C56.9588 126.909 56.035 121.312 54.6372 115.638L61.1927 113.874C62.1715 113.61 63.1904 113.408 64.1318 113.028Z" fill="#053849"/>
<path d="M200.665 194.406C201.506 195.09 202.565 195.495 203.512 196.012C204.129 196.348 204.69 196.785 205.305 197.113C203.565 200.779 202.258 204.571 201.051 208.441C198.919 215.277 197.375 222.158 196.621 229.284C194.975 230.266 193.59 231.706 191.905 232.629C191.583 231.872 191.923 230.501 191.994 229.672L192.489 224.307C193.197 219.216 194.413 214.079 195.617 209.082L196.471 205.871C196.573 205.523 196.896 204.787 196.863 204.447C196.847 204.291 196.683 204.01 196.618 203.854L200.665 194.406Z" fill="#F19B0E"/>
<path d="M53.8042 112.293C53.8449 111.703 53.421 110.636 53.2713 110.004L52.0818 104.781C51.7894 103.549 51.4219 102.355 51.27 101.094C52.7099 97.6751 56.3959 94.3864 59.6234 92.673L64.132 113.028C63.1906 113.408 62.1717 113.61 61.1929 113.874L54.6374 115.638L53.8042 112.293Z" fill="#285478"/>
<path d="M45.1484 195C49.9309 204.931 52.9015 215.405 54.2779 226.343C54.5771 228.72 54.9245 231.205 54.9543 233.599C54.2497 233.097 53.534 232.508 52.7806 232.089C52.7027 231.784 49.9431 229.962 49.4536 229.447L47.9126 219.113C46.9194 213.873 45.4638 208.587 43.641 203.575C42.8702 201.456 42.03 199.102 40.8052 197.203C42.1116 196.272 43.6917 195.66 45.1484 195Z" fill="#F19B0E"/>
<path d="M151.962 147.694C153.227 148.882 154.833 149.757 156.251 150.757C159.199 152.836 162.111 155.25 164.415 158.036C165.17 158.95 165.97 159.938 166.465 161.021L166.383 161.186C166.166 161.659 166.377 162.637 166.383 163.165C166.407 165.681 165.948 167.856 165.042 170.187C163.99 169.268 163.081 168.123 161.987 167.272C160.31 165.967 157.897 165.182 155.96 164.283C155.099 163.883 154.314 163.395 153.415 163.078L151.274 161.738C151.041 160.448 151.083 159.048 151.078 157.737C151.066 154.296 151.36 151.083 151.962 147.694Z" fill="#74B6D3"/>
<path d="M92.0225 149.174L93.461 148.286C93.4548 149.366 94.0048 150.45 94.1806 151.53C94.6395 154.348 94.6801 157.241 94.6622 160.094C94.6601 160.399 94.7477 161.21 94.6452 161.47C94.6023 161.58 94.48 161.638 94.3973 161.722C93.2541 161.873 92.2203 162.467 91.2287 163.033C89.9912 163.739 88.7311 164.504 87.6015 165.372L83.0175 169.246C82.1103 169.979 81.1982 170.806 80.0271 171.04C79.4169 169.09 78.9683 167.408 78.9506 165.344C78.9422 164.382 79.0545 163.424 79 162.466C79.0494 162.021 79.2446 161.539 79.4974 161.171C80.2978 160.008 81.026 158.809 81.9239 157.715C84.8107 154.2 88.2681 151.674 92.0225 149.174Z" fill="#74B6D3"/>
<path d="M206.326 197.711L212.209 201.939C214.415 203.668 216.413 205.515 218.409 207.474C217.59 208.806 216.494 210.012 215.499 211.217C211.61 215.921 207.351 220.007 202.939 224.199C202.517 222.409 202.478 220.418 202.479 218.585C202.479 214.448 202.996 210.35 203.804 206.298L204.519 203.123C204.675 202.469 204.878 201.925 204.854 201.238C205.292 200.054 205.717 198.818 206.326 197.711Z" fill="#285478"/>
<path d="M68.1519 93.9536C68.7217 93.2514 70.2649 92.657 71.1178 92.4238C72.8964 91.9376 74.2403 92.7131 75.7241 93.5686L76.5074 97.1597C76.592 97.5732 76.711 98.616 77.0745 98.8514C77.3324 99.0187 77.5662 99.0182 77.8642 99.051C78.1374 99.4547 78.1474 100.307 78.2146 100.799L78.8295 105.213L81.2072 120.602L73.3976 121.18L68.1519 93.9536Z" fill="#DF251B"/>
<path d="M104.227 240.951L102.869 233.367L122.687 242.465L144.099 233.336L142.767 240.011C140.344 240.964 138.028 242.257 135.607 243.25L125.455 246.867C124.991 247.031 123.34 247.836 122.915 247.747C122.489 247.658 121.967 247.358 121.538 247.207L118.436 246.159C114.617 244.86 110.822 243.733 107.114 242.116L104.455 240.841L104.227 240.951Z" fill="#132847"/>
<path d="M191.166 190.568L191.872 190.771C191.358 193.068 189.955 195.453 188.877 197.536C187.025 201.113 184.891 204.29 182.493 207.527C174.916 217.756 165.083 226.466 154.334 233.258L150.668 235.417C150.113 235.731 149.49 236.159 148.877 236.332C149.322 234.374 149.763 232.453 150.401 230.546C150.497 230.26 150.603 229.658 150.763 229.427C150.962 229.14 151.65 228.794 151.951 228.6L154.938 226.658L159.494 223.433C169.146 216.331 178.177 208.213 185.59 198.769C186.888 197.117 188.026 195.395 189.155 193.627C189.763 192.674 190.324 191.618 191.028 190.736L191.166 190.568Z" fill="#132847"/>
<path d="M166.18 115.463L172.155 83.224L179.095 88.2275L173.771 118.34C173.373 118.045 172.669 117.833 172.199 117.643L168.677 116.313C167.863 116.045 166.942 115.845 166.18 115.463Z" fill="#DF251B"/>
<path d="M54.0083 190.132C54.9366 191.028 55.4845 192.372 56.1625 193.468C56.9734 194.778 57.8533 196.069 58.7908 197.293C63.0535 202.858 67.9638 208.012 73.1732 212.7C76.769 215.937 80.6614 219.074 84.6089 221.879L92.8269 227.441L95.5607 229.185C95.676 229.26 96.2038 229.53 96.2691 229.635C96.4777 229.968 96.5989 230.758 96.7063 231.158C97.2552 233.203 97.626 235.314 98.0404 237.39C97.3241 237.165 96.555 236.603 95.8997 236.231L90.7467 233.112C87.6638 231.137 84.792 228.895 81.9323 226.616C77.3268 222.945 72.8543 219.142 68.8444 214.814C66.4274 212.205 64.2229 209.381 62.1408 206.501C59.4097 202.724 56.9824 198.788 55.3022 194.424C54.8086 193.142 54.1509 191.747 53.8594 190.42L54.0083 190.132Z" fill="#132847"/>
<path d="M40.2339 197.393C41.1937 199.218 41.9395 201.302 42.5728 203.258C42.4388 204.322 42.9007 205.404 43.1768 206.427L44.3056 210.923C45.1805 214.829 45.8244 218.748 46.1064 222.744C46.2019 224.1 46.3584 225.499 46.2401 226.856C40.3776 222.03 35.3569 216.713 30.5101 210.887C29.2468 209.368 27.7275 207.774 26.7573 206.046L40.2339 197.393Z" fill="#285478"/>
<path d="M83.8032 81.8558C84.2342 82.9239 83.9773 84.8651 83.9803 86.0321C83.9858 88.3314 84.1694 90.8428 83.9136 93.1224C83.5876 94.2661 83.676 95.7758 83.6473 96.9689C83.5863 99.512 83.5621 102.071 83.7257 104.611C84.0156 109.109 84.8181 113.714 85.5878 118.154C86.4109 122.902 86.9702 128.183 89.3305 132.459C90.7772 135.079 92.8311 137.349 94.8565 139.531L104.62 149.185L117.258 161.675C117.01 161.895 116.506 161.824 116.173 161.84C115.274 161.823 114.226 161.755 113.393 161.413C111.6 160.676 110.046 159.198 108.568 157.973L101.161 151.507C97.1659 147.808 93.3811 144.039 89.9663 139.795C88.4835 137.952 87.0079 136.077 85.9301 133.96C84.9911 132.116 84.8002 129.775 84.3931 127.76L80.8706 107.033C80.4196 103.979 79.7315 100.758 79.6382 97.6763C79.5325 94.191 80.5183 90.6118 81.1611 87.2013C81.345 86.2249 81.3767 85.0158 81.8028 84.1248C82.1665 83.3648 83.2093 82.4911 83.8032 81.8558Z" fill="#FEFEFE"/>
<path d="M104.227 240.952L104.455 240.841L107.114 242.117C110.822 243.733 114.617 244.86 118.436 246.159L121.538 247.207C121.967 247.358 122.489 247.658 122.915 247.748C123.34 247.837 124.991 247.031 125.455 246.868L135.607 243.25C138.028 242.257 140.344 240.965 142.767 240.011L140.729 252.929C138.964 252.897 137.101 253.34 135.328 253.49C130.974 253.859 126.627 254.148 122.255 254.149C119.359 254.15 116.481 254.071 113.597 253.793L108.621 253.266C107.881 253.184 106.998 252.988 106.261 253.053L104.227 240.952Z" fill="#285478"/>
<path d="M60.5517 196.639C60.4128 195.93 59.9217 195.205 59.5894 194.557L57.951 191.123C56.8578 188.599 56.0938 185.961 55.4209 183.3C55.7748 182.423 56.4282 181.589 56.9595 180.802L60.4215 175.989L60.4823 176.094C60.8186 176.73 60.8018 177.451 60.8536 178.153L61.1321 181.173C61.2932 182.52 61.5348 183.818 61.8817 185.128C64.2491 194.064 70.6446 201.715 77.059 208.118C78.7178 209.774 80.3795 211.478 82.2085 212.946L82.2237 212.946C83.3216 214.134 84.6676 215.212 85.9149 216.247L91.5431 220.773C100.162 227.453 108.774 234.054 118.808 238.501C119.574 238.84 120.336 239.207 121.123 239.494C121.455 239.616 121.985 239.71 122.276 239.884C122.52 240.03 122.453 240.443 122.457 240.682C121.069 240.459 119.323 239.476 118.039 238.905L109.613 235.095L97.1049 228.402C86.7871 222.357 77.3419 214.91 68.8926 206.472C65.9488 203.532 62.6189 200.281 60.5517 196.639Z" fill="#DF251B"/>
<path d="M96.3925 154.864C96.239 154.316 96.2401 153.699 96.163 153.132L95.6914 150.01L109.008 162.985C110.464 164.249 112.087 165.714 113.753 166.671C116.95 168.509 121.31 168.712 124.92 168.419C126.799 168.267 129.068 167.799 130.772 166.975C131.835 166.461 132.866 165.574 133.804 164.848C136.601 162.684 139.103 160.234 141.586 157.724L149.826 148.846L149.506 151.608C147.955 153.315 147.128 155.596 146.477 157.771C145.651 159.311 144.569 160.686 143.516 162.074C141.646 164.538 139.696 166.867 137.516 169.067C134.153 172.46 130.296 175.411 126.066 177.641C125.279 178.056 124.097 178.751 123.199 178.71C121.679 178.641 119.71 177.614 118.411 176.88C111.521 172.983 106.361 166.482 101.392 160.464C100.139 158.947 98.9799 157.248 97.6094 155.843L97.4733 155.705L96.5159 154.594L96.3925 154.864Z" fill="#E2956A"/>
<path d="M172.88 182.381C173.55 180.406 174.185 178.594 174.536 176.529C174.655 178.625 174.539 180.639 174.268 182.716C174.177 183.41 174.137 184.229 173.882 184.879L173.943 185.315C175.076 182.91 175.455 180.415 176.099 177.877L176.142 177.718L176.292 177.834L176.458 177.514L176.578 177.495C176.988 177.425 177.306 177.305 177.687 177.143C177.899 177.054 177.815 177.084 178.077 177.061C178.093 177.385 178.096 177.674 178.186 177.987C178.154 179.066 177.899 180.168 177.675 181.221C177.055 184.138 176.068 186.715 174.895 189.443C173.194 192.763 171.306 195.96 169.006 198.907C165.326 203.622 161.03 207.869 156.636 211.908C149.22 218.728 141.445 224.754 133.189 230.52C129.837 232.861 126.467 235.302 122.941 237.375L122.889 219.649C124.113 222.013 124.739 225.276 127.36 226.601C128.308 227.081 129.211 227.083 130.208 226.755C132.427 226.027 134.739 224.275 136.629 222.921C144.531 217.258 151.562 210.704 158.11 203.536C159.972 201.497 161.893 199.467 163.583 197.28C166.396 193.64 169.15 189.77 171.333 185.714C171.917 184.63 172.319 183.473 172.88 182.381Z" fill="#8ED0D2"/>
<path d="M65.086 169.865L65.4564 169.525L65.642 169.605C65.5392 170.993 65.3412 172.357 65.3029 173.753C65.234 176.272 65.368 179.071 65.9528 181.536C66.6471 184.464 67.9592 187.156 69.3974 189.784C71.4687 193.567 73.8567 196.866 76.6689 200.129C81.5103 205.746 86.7108 210.947 92.2758 215.846L100.208 222.525L113.081 232.105L118.296 235.512L121.086 237.175C121.581 237.462 122.167 237.723 122.566 238.139C122.578 238.798 122.775 240.154 122.457 240.682C122.453 240.443 122.52 240.03 122.275 239.884C121.985 239.71 121.455 239.615 121.123 239.494C120.335 239.207 119.574 238.84 118.808 238.5C108.774 234.054 100.162 227.453 91.543 220.773L85.9148 216.247C84.6675 215.211 83.3215 214.134 82.2236 212.946L82.2084 212.946C80.3794 211.477 78.7176 209.774 77.0589 208.118C70.6445 201.715 64.249 194.064 61.8816 185.128C61.5347 183.818 61.2931 182.519 61.132 181.173L60.8534 178.153C60.8016 177.45 60.8184 176.73 60.4821 176.094L60.4214 175.989L63.1785 172.572C63.7551 171.896 65.0049 170.77 65.086 169.865Z" fill="url(#paint0_linear_232_283)"/>
<path d="M181.005 113.302L184.219 98.8449L185.04 95.0965C185.196 94.3574 185.276 93.5751 185.693 92.9327L186.585 94.1114C187.255 94.8563 187.915 95.622 188.687 96.2635C190.384 97.6732 192.34 98.6033 194.314 99.5534L190.998 115.554L190.609 117.283L189.285 122.644C188.666 124.965 188.024 127.494 185.782 128.798C183.556 130.094 180.63 130.788 178.092 131.13C177.241 131.244 176.257 131.178 175.444 131.426C174.716 131.36 174.035 131.071 173.377 130.772C173.538 129.121 173.901 127.451 174.206 125.819L175.941 116.91C176.439 114.319 176.656 111.312 177.555 108.849C177.701 109.588 177.807 110.344 178.166 111.013L178.239 111.155C178.735 112.057 180.13 112.813 181.005 113.302Z" fill="#132847"/>
<path d="M181.005 113.302L184.219 98.8449L185.04 95.0965C185.196 94.3574 185.276 93.5751 185.693 92.9327L186.585 94.1114L182.464 113.984L179.771 126.075C179.533 127.071 179.364 128.601 178.905 129.474C178.533 129.522 178.456 129.556 178.125 129.395C178.533 123.973 180.05 118.646 181.005 113.302Z" fill="#04040A"/>
<path d="M186.585 94.1113C187.255 94.8562 187.915 95.6219 188.687 96.2634C190.384 97.6732 192.339 98.6032 194.314 99.5533L190.998 115.554C187.829 115.615 185.408 115.094 182.464 113.984L186.585 94.1113Z" fill="#285478"/>
<path d="M97.4731 155.704L97.6093 155.842C98.9797 157.248 100.139 158.946 101.392 160.464C106.361 166.482 111.521 172.983 118.41 176.879C119.71 177.614 121.679 178.641 123.198 178.71C124.097 178.751 125.279 178.056 126.066 177.641C130.296 175.411 134.152 172.459 137.516 169.066C139.696 166.867 141.646 164.538 143.515 162.074C144.569 160.685 145.651 159.311 146.477 157.771C146.703 159.051 146.625 160.362 146.774 161.657L148.278 170.765C148.511 172.007 148.64 173.297 148.97 174.515C147.026 175.841 145.042 176.858 142.931 177.882C142.867 177.874 142.474 178.057 142.385 178.093L140.021 179.005C130.511 182.476 120.737 182.908 110.897 180.693C107.956 180.031 104.993 179.205 102.255 177.926C102.349 176.321 101.799 174.435 101.46 172.858L98.4305 159.924C98.1148 158.534 97.6031 157.124 97.4731 155.704Z" fill="#F8CEAB"/>
<path d="M67.358 170.442C67.8411 167.1 68.3808 163.718 69.6527 160.572C69.9888 159.741 70.3666 158.998 70.9638 158.323C72.3386 156.77 74.1378 155.468 75.8247 154.275C79.0071 152.025 82.3173 150.082 85.7462 148.234C87.5392 147.267 89.3116 146.235 91.1894 145.442C91.9795 146.082 92.9472 147.396 93.4608 148.286L92.0223 149.174C90.9906 149.155 90.1032 149.603 89.1288 149.894C87.987 150.235 86.8517 150.492 85.7381 150.937C83.3964 151.873 81.1088 153.326 79.0644 154.786C78.0112 155.538 76.9617 156.276 76.0281 157.178L74.4603 158.827C74.1047 159.268 73.7795 159.66 73.5514 160.188L73.4958 160.343C73.181 161.207 72.7142 161.99 72.3969 162.85C71.5897 165.037 71.1528 167.329 70.7796 169.622C72.184 177.711 75.3235 184.841 79.5891 191.803C85.3391 201.189 92.3928 209.186 100.736 216.343C103.047 218.326 105.344 220.329 107.836 222.085L111.313 224.47C113.087 225.649 115.086 227.153 117.323 226.752C118.772 226.492 119.741 225.421 120.513 224.245C121.403 222.889 122.052 221.52 122.526 219.968L122.589 237.57C122.107 237.158 121.145 236.162 120.55 236.011C119.944 235.412 119.12 234.931 118.417 234.448L114.663 231.895L107.765 226.956C99.8278 221.071 92.3283 214.728 85.3245 207.758C81.7599 204.211 78.2185 200.501 75.1527 196.508C72.0942 192.525 68.7699 187.658 67.5693 182.73C66.6035 178.768 66.8349 174.448 67.358 170.442Z" fill="url(#paint1_linear_232_283)"/>
<path d="M69.3335 171.077C69.8309 167.169 71.1891 163.367 73.5514 160.188L73.4958 160.343C73.1809 161.207 72.7142 161.99 72.3968 162.85C71.5897 165.037 71.1528 167.329 70.7796 169.621C70.1894 174.102 70.6915 178.566 71.6239 182.966C71.9247 184.384 72.5634 185.982 72.6702 187.387C70.0834 182.1 69.0541 176.939 69.3335 171.077Z" fill="#04040A"/>
<path d="M145.441 177.364C147.987 176.26 150.351 174.419 152.104 172.284C152.371 171.959 152.976 171.281 153.092 170.877C153.289 170.189 153.016 168.901 152.946 168.156C153.422 168.862 153.958 169.581 154.348 170.338C155.368 172.32 155.939 174.569 156.556 176.7L156.474 177.083C153.415 180.196 150.171 183.128 146.371 185.324C138.549 189.844 129.087 192.163 120.04 191.554C116.384 191.308 112.774 190.558 109.239 189.617C101.589 187.582 93.2781 184.017 89.1274 176.874C89.7388 174.406 90.8315 171.627 92.1631 169.461C92.2504 169.708 92.2393 169.605 92.2396 169.821C92.2404 171.266 93.6735 172.946 94.5709 174.001C99.2399 178.378 105.198 180.638 111.438 181.791L114.31 182.301C115.092 182.296 115.993 182.511 116.777 182.603C118.645 182.824 120.547 183.039 122.428 183.085C128.038 183.225 133.981 181.856 139.252 180.046C141.348 179.326 143.539 178.515 145.441 177.364Z" fill="#27634A"/>
<path d="M111.438 181.791L114.31 182.301L114.553 182.688L114.41 182.924C113.573 182.931 112.786 182.878 111.958 182.763L111.947 182.732C112.068 182.596 112.013 182.674 112.105 182.494L111.438 181.791Z" fill="#049892"/>
<path d="M94.5708 174.001C99.2397 178.378 105.197 180.638 111.438 181.791L112.105 182.494C112.013 182.674 112.068 182.596 111.947 182.732C108.448 182.49 104.987 181.553 101.764 180.191C100.111 179.492 98.3851 178.627 97.0584 177.401C96.1983 176.606 94.6234 175.256 94.5708 174.001Z" fill="url(#paint2_linear_232_283)"/>
<path d="M175.717 189.307C176.237 188.78 176.686 187.449 177.001 186.748C179.36 181.497 180.765 175.922 180.764 170.147L180.925 170.039L181.219 170.345C184.502 172.826 187.754 176.2 190.033 179.637C190.847 180.864 191.44 182.268 192.307 183.446C191.575 185.207 190.862 187.012 189.974 188.7C185.882 196.477 179.82 203.709 173.282 209.552C171.337 211.878 168.88 213.99 166.566 215.934C159.414 221.94 151.464 227.201 143.279 231.693L137.375 234.758C136.215 235.321 134.76 235.833 133.706 236.561C132.781 236.808 131.878 237.31 130.997 237.69L126.06 239.753C125.134 240.141 124.07 240.677 123.07 240.781C123.04 240.564 123.018 240.382 123.029 240.162C123.009 239.999 122.984 238.028 123.018 237.986C123.079 237.908 123.682 237.668 123.806 237.607L125.87 236.49C132.761 232.56 139.225 227.798 145.433 222.874C150.97 218.481 156.374 213.939 161.259 208.815C164.718 205.189 167.887 201.226 170.761 197.126C172.534 194.599 174.284 192.046 175.717 189.307Z" fill="#DF251B"/>
<path d="M182.499 172.69L181.499 171.638C181.172 171.22 181.169 170.855 181.219 170.345C184.502 172.826 187.754 176.2 190.033 179.637C190.847 180.864 191.439 182.268 192.307 183.446C191.575 185.207 190.862 187.012 189.974 188.7C185.882 196.477 179.82 203.709 173.282 209.552C172.323 210.034 171.482 210.846 170.633 211.497L163.974 216.564L163.793 216.514C174.598 207.483 184.338 196.941 190.271 184.035C188.57 179.876 185.727 175.794 182.499 172.69Z" fill="#F8CEAB"/>
<path d="M175.717 189.307C176.237 188.78 176.686 187.449 177.001 186.748C179.36 181.497 180.765 175.922 180.764 170.147L180.925 170.039L181.219 170.345C181.169 170.855 181.173 171.22 181.499 171.638L182.499 172.69C183.158 179.364 180.806 185.926 177.974 191.865C176.872 194.176 175.782 196.531 174.45 198.72C172.983 201.129 171.255 203.332 169.469 205.51C165.946 209.803 162.213 214.002 158.169 217.815C155.603 220.234 152.874 222.423 150.095 224.59C143.64 229.624 136.865 233.903 129.458 237.399L125.191 239.343C124.652 239.597 123.921 240.102 123.335 240.172C123.232 240.184 123.131 240.17 123.029 240.162C123.009 239.999 122.984 238.028 123.018 237.986C123.079 237.908 123.682 237.668 123.806 237.607L125.87 236.49C132.761 232.56 139.225 227.798 145.433 222.874C150.97 218.481 156.374 213.939 161.259 208.815C164.718 205.189 167.887 201.226 170.761 197.126C172.534 194.599 174.284 192.046 175.717 189.307Z" fill="#9A0D0F"/>
<path d="M78.971 26.979C80.0184 26.5064 80.9495 25.5067 81.8451 24.7805L85.8918 21.6975C93.9617 16.0892 103.035 11.8362 112.729 10.0127C120.411 8.56767 128.084 8.20552 135.836 9.2947L142.783 10.5539C144.573 10.9662 146.394 11.5159 148.207 11.7937C148.534 11.8438 148.728 11.8666 149.037 11.7225L149.3 11.8701C148.752 12.2948 147.97 12.5485 147.333 12.8212L142.881 14.6251C139.215 15.8606 135.487 16.8961 131.639 17.3456C129.422 17.6043 127.086 17.4321 124.851 17.4934C119.16 17.6493 113.556 18.3215 108.124 20.0823C106.047 20.7556 103.942 21.4985 101.978 22.4568C100.526 23.1645 99.1861 24.0709 97.6627 24.6227C94.122 25.9052 90.9166 27.9465 87.911 30.1889C85.1639 32.2382 82.4694 34.5514 80.3632 37.274C78.8658 39.21 77.8013 41.3399 76.4403 43.3448C75.8597 44.2 75.061 44.9551 74.4054 45.7577C73.1112 47.3426 72.0489 49.1672 71.1954 51.0229C70.4368 52.6718 69.8873 54.3754 69.4734 56.14C69.2616 57.0435 69.1624 57.9871 68.9188 58.8792C68.6807 59.7501 68.0363 60.6121 67.6485 61.4356C66.8432 63.1463 66.2173 65.3461 65.0679 66.8326C64.5499 66.8822 64.1034 66.9985 63.6074 67.1522C63.183 67.3033 62.5456 67.249 62.1309 67.0807C61.5996 66.8648 61.1781 66.4741 60.9764 65.9272C60.6064 64.9247 61.3081 62.7569 61.5345 61.723C63.1238 54.4689 66.2251 47.5465 69.8724 41.0994C71.5873 38.0682 73.5462 35.1512 74.9281 31.9448L74.8283 31.6994C75.0338 31.2811 75.5562 30.8003 75.8686 30.4307C76.8591 29.2585 77.8355 28.0137 78.971 26.979Z" fill="#F19B0E"/>
<path d="M63.6074 67.1521L63.2871 66.974C63.132 66.3644 63.334 65.6532 63.4333 65.0377C63.938 61.91 64.7829 58.9292 65.779 55.9252C69.873 43.5819 77.1724 33.3113 87.7876 25.7015C92.0806 22.6239 96.7151 19.8843 101.583 17.8173C111.763 13.4941 122.763 12.0385 133.746 13.0634C136.827 13.3508 139.835 14.1207 142.881 14.625C139.215 15.8604 135.487 16.896 131.639 17.3455C129.423 17.6042 127.086 17.432 124.851 17.4933C119.16 17.6492 113.556 18.3213 108.124 20.0822C106.047 20.7555 103.942 21.4984 101.978 22.4566C100.526 23.1643 99.1861 24.0708 97.6627 24.6226C94.1221 25.9051 90.9166 27.9463 87.911 30.1887C85.1639 32.2381 82.4694 34.5513 80.3632 37.2739C78.8658 39.2099 77.8013 41.3398 76.4404 43.3447C75.8597 44.1999 75.061 44.955 74.4055 45.7576C73.1112 47.3425 72.0489 49.167 71.1954 51.0228C70.4368 52.6717 69.8873 54.3753 69.4735 56.1399C69.2617 57.0434 69.1624 57.987 68.9188 58.8791C68.6807 59.75 68.0363 60.612 67.6485 61.4355C66.8433 63.1462 66.2173 65.346 65.0679 66.8324C64.5499 66.8821 64.1035 66.9984 63.6074 67.1521Z" fill="#DF251B"/>
<path d="M94.7982 193.903C92.3568 191.093 89.8844 188.137 87.9585 184.948C88.0936 182.628 88.0822 180.373 88.6341 178.101C89.176 178.622 89.5817 179.35 90.0604 179.936C90.9548 181.032 92.0061 182.035 93.0999 182.928C97.5003 186.524 102.763 188.789 108.188 190.355C113.372 191.851 118.588 192.705 123.989 192.597C132.751 192.424 141.979 189.542 149.134 184.465C151.961 182.459 154.402 180.152 156.832 177.692C157.52 180.227 158.187 182.928 158.431 185.551C152.941 192.524 146.253 198.893 139.425 204.546L129.551 212.026L126.789 213.908C126.535 214.077 125.978 214.354 125.823 214.58L122.754 216.589C117.693 213.443 112.819 209.846 108.174 206.122C103.463 202.346 98.8759 198.367 94.7982 193.903Z" fill="#27634A"/>
<path d="M191.872 190.771L199.726 194.082C194.994 203.121 192.244 213.117 190.03 223.032C190.06 227.018 188.875 230.998 188.919 235.022C188.503 235.136 188.199 235.328 187.813 235.496L177.907 241.011C173.09 243.437 168.109 245.427 163.025 247.214C157.599 249.122 151.962 250.832 146.277 251.774L146.045 251.549L148.877 236.332C149.49 236.159 150.113 235.731 150.668 235.417L154.334 233.258C165.083 226.466 174.916 217.756 182.493 207.527C184.891 204.29 187.025 201.112 188.877 197.535C189.955 195.453 191.358 193.067 191.872 190.771Z" fill="#285478"/>
<path d="M187.813 235.496L188.947 227.718C189.231 226.148 189.468 224.531 190.03 223.032C190.06 227.018 188.875 230.998 188.919 235.022C188.504 235.136 188.199 235.328 187.813 235.496Z" fill="#132847"/>
<path d="M53.8596 190.42C54.1512 191.747 54.8089 193.142 55.3025 194.424C56.9826 198.788 59.41 202.724 62.1411 206.501C64.2232 209.381 66.4276 212.205 68.8446 214.814C72.8545 219.142 77.3271 222.945 81.9325 226.616C84.7922 228.895 87.6641 231.137 90.7469 233.112L95.9 236.231C96.5552 236.603 97.3244 237.165 98.0406 237.39L100.723 251.971L100.551 252.058C96.4416 251.65 92.2147 250.533 88.2656 249.355C78.08 246.319 68.2678 241.96 59.2359 236.354C58.2622 235.92 57.3884 235.296 56.5004 234.712L55.674 228.719L54.5705 222.275C54.4056 221.121 54.1645 220.035 54.2453 218.863C52.8382 213.255 51.4488 207.617 49.3212 202.228C48.267 199.558 46.9521 197.011 45.7271 194.419L53.8596 190.42Z" fill="#285478"/>
<path d="M54.2451 218.864C54.9397 220.592 55.4271 222.435 55.9472 224.224L59.2357 236.354C58.262 235.92 57.3882 235.297 56.5002 234.712L55.6739 228.72L54.5703 222.275C54.4054 221.121 54.1643 220.035 54.2451 218.864Z" fill="#132847"/>
<path d="M151.962 147.694L153.56 145.491C157.623 147.154 161.62 149.386 165.265 151.814C168.103 153.705 170.909 155.788 173.149 158.382C174.74 160.227 176 162.403 176.95 164.639C178.184 167.541 178.369 170.789 178.402 173.906C178.416 175.226 178.444 176.692 178.186 177.987C178.096 177.674 178.093 177.385 178.077 177.061C177.815 177.084 177.899 177.054 177.687 177.143C177.306 177.305 176.988 177.425 176.578 177.495L176.458 177.514L176.292 177.834L176.142 177.718L176.099 177.877C175.455 180.415 175.076 182.91 173.943 185.315L173.882 184.879C174.137 184.229 174.177 183.41 174.268 182.716C174.539 180.639 174.655 178.625 174.536 176.529C174.185 178.594 173.55 180.406 172.88 182.381C172.319 183.473 171.917 184.63 171.333 185.714C169.15 189.77 166.396 193.64 163.583 197.28C161.893 199.467 159.972 201.497 158.11 203.536C151.562 210.704 144.531 217.258 136.629 222.921C134.739 224.275 132.427 226.027 130.208 226.755C129.211 227.083 128.308 227.081 127.36 226.601C124.739 225.276 124.113 222.013 122.889 219.649L122.861 219.588L122.527 219.968C122.052 221.52 121.403 222.888 120.514 224.244C119.741 225.421 118.772 226.492 117.324 226.752C115.086 227.152 113.087 225.649 111.313 224.469L107.837 222.084C105.344 220.329 103.047 218.326 100.736 216.343C92.393 209.186 85.3393 201.189 79.5893 191.803C75.3237 184.84 72.1841 177.711 70.7798 169.621C71.153 167.329 71.5899 165.037 72.397 162.85C72.7143 161.99 73.1811 161.206 73.496 160.343L73.5516 160.188C73.7797 159.66 74.1049 159.268 74.4604 158.826L76.0283 157.178C76.9618 156.276 78.0114 155.538 79.0645 154.786C81.1089 153.326 83.3966 151.872 85.7382 150.937C86.8518 150.492 87.9871 150.235 89.1289 149.894C90.1034 149.603 90.9908 149.155 92.0225 149.174C88.2681 151.674 84.8107 154.2 81.9239 157.715C81.0259 158.808 80.2977 160.008 79.4974 161.171C79.2446 161.538 79.0493 162.021 79 162.466C78.6818 163.858 78.3941 165.295 78.4114 166.73C78.4719 171.741 81.264 176.799 83.8685 180.925L86.2063 184.406C87.8955 186.8 89.6681 189.119 91.6008 191.324C91.9653 191.74 92.48 192.499 92.9378 192.779C95.2336 195.654 98.0659 198.27 100.812 200.712L114.177 211.536L119.646 215.325C120.501 215.897 122.057 216.683 122.637 217.51L123.992 216.661C125.555 215.789 127.041 214.703 128.53 213.709C136.236 208.564 143.647 202.594 150.163 195.994C154.885 191.211 159.333 186.155 162.881 180.428C164.876 177.208 166.625 173.717 167.37 169.975C167.689 168.374 167.662 166.753 167.651 165.128C167.63 163.731 167.063 162.27 166.465 161.021C165.97 159.938 165.17 158.95 164.415 158.036C162.111 155.25 159.199 152.836 156.251 150.757C154.833 149.757 153.227 148.882 151.962 147.694Z" fill="#D9F4F7"/>
<path d="M174.536 176.53C174.583 172.934 174.127 168.819 173.047 165.385C172.673 164.193 171.927 162.986 171.652 161.809C172.538 162.778 173.418 163.766 174.089 164.901C176.028 168.178 176.468 172.031 176.29 175.773L176.142 177.718L176.098 177.878C175.455 180.415 175.076 182.91 173.943 185.316L173.882 184.879C174.136 184.229 174.177 183.41 174.268 182.716C174.539 180.639 174.655 178.626 174.536 176.53Z" fill="#04040A"/>
<path d="M122.601 217.915L122.479 218.369L122.337 218.355C121.813 218.256 121.212 217.881 120.752 217.612L117.576 215.588C113.843 213.206 110.383 210.545 106.912 207.801C102.758 204.517 98.708 201.137 95.0187 197.323C93.8131 196.077 92.7483 194.685 91.5851 193.396C89.3191 190.884 86.9604 188.293 85.1484 185.422C85.475 185.006 85.7619 184.697 86.2064 184.406C87.8955 186.801 89.6682 189.12 91.6009 191.324C91.9654 191.74 92.4801 192.499 92.9379 192.779C95.2337 195.654 98.066 198.27 100.813 200.712L114.177 211.536L119.646 215.325C120.501 215.897 122.057 216.683 122.638 217.51L122.601 217.915Z" fill="#FEFEFE"/>
<path d="M64.5707 134.213L64.8272 134.252C65.4752 134.333 66.2137 134.13 66.8548 134.028L72.0331 133.065C72.7892 132.919 73.5877 132.681 74.3511 132.634L74.4005 132.82C74.7891 134.24 75.5106 135.285 76.8005 136.049C77.6952 136.578 78.6843 136.753 79.7084 136.755C81.4631 136.575 83.1194 136.179 84.8199 135.725C86.1928 138.722 88.1642 141.35 90.1745 143.946C87.7639 144.65 85.5609 145.947 83.3633 147.138C79.3661 149.306 75.4818 151.609 71.9495 154.488C70.5251 155.649 69.1013 156.796 68.1949 158.423C67.2988 160.033 66.848 161.932 66.3897 163.702C66.2614 164.198 66.1049 165.605 65.8486 165.954C65.6189 166.266 65.0301 166.64 64.7226 166.888L61.8992 169.21C58.8088 171.881 56.1512 174.71 53.7412 178.015C52.4361 179.804 51.1416 181.767 50.2965 183.819C50.5238 184.288 50.9252 184.9 51.0003 185.407C45.5237 187.172 40.4762 189.921 35.3834 192.542L32.3325 187.549C30.124 183.629 28.024 179.629 26.266 175.484C24.7266 171.855 23.4614 168.071 22.2534 164.321L19.8979 154.869L64.5707 134.213Z" fill="#0CBCB1"/>
<path d="M64.5707 134.213L64.8272 134.252C65.4752 134.333 66.2137 134.13 66.8548 134.028L72.0331 133.065C72.7892 132.919 73.5877 132.681 74.3511 132.634L74.4005 132.82C74.7891 134.24 75.5106 135.285 76.8005 136.049C77.6952 136.578 78.6843 136.753 79.7084 136.755C79.298 137.272 78.8644 137.55 78.2902 137.846L69.6993 141.842L49.9746 151.215L31.0049 160.169L25.0309 162.94C24.105 163.379 23.191 163.929 22.2534 164.321L19.8979 154.869L64.5707 134.213Z" fill="#049892"/>
<path d="M153.484 12.3493C154.051 11.9159 154.809 11.6183 155.44 11.2663L160.427 8.45813C161.118 8.02687 161.827 7.5956 162.485 7.11651C162.823 6.87093 163.347 6.35567 163.735 6.24561C162.514 8.52614 161.423 10.8325 159.93 12.9632C158.596 14.8684 156.904 16.5417 155.16 18.0708C154.093 19.0065 152.952 19.9043 151.77 20.6901L149.535 22.0613C149.307 22.2058 148.857 22.4214 148.683 22.612C148.612 22.6887 148.601 22.8037 148.561 22.8994C151.688 21.5331 154.93 20.4664 158.211 19.5298C162.412 18.3311 166.535 17.3091 170.467 15.3476L170.76 15.1849C170.906 15.6301 170.803 16.176 170.759 16.6362C170.581 18.4731 169.888 20.4382 169.06 22.0835C167.499 25.1844 164.632 27.4143 162.049 29.6304L146.345 29.8105L146.239 29.9688C151.935 30.3652 157.85 30.3319 163.427 31.648C164.144 31.8172 165.072 31.8788 165.614 32.4102C167.206 32.8755 168.721 33.3861 170.202 34.1486C172.951 35.5642 175.401 37.536 177.872 39.3782C179.359 40.4864 180.829 41.7142 182.548 42.4428C184.77 43.2568 186.759 43.4265 189.123 43.4601L188.943 43.5312C186.384 44.558 183.99 46.0718 181.46 47.1928C179.165 48.2093 176.791 49.2408 174.348 49.8405C167.579 51.5016 160.682 50.1911 153.948 49.0995C155.085 50.1567 156.419 51.0181 157.736 51.833C160.946 53.8183 164.644 55.4804 168.395 56.0507C170.596 56.3853 172.828 56.3137 175.046 56.3026C173.453 57.1572 171.942 58.0076 170.246 58.6665C166.652 60.0629 162.924 60.5672 159.122 60.9964C157.577 61.1708 155.968 61.1228 154.414 61.0968C146.448 60.9634 138.155 58.7714 130.838 55.6887C128.32 54.628 125.903 53.314 123.461 52.0903C125.89 52.2256 128.345 52.9696 130.743 53.391C138.158 54.693 145.721 55.8243 153.25 54.8693C151.398 53.8178 149.292 53.1337 147.362 52.2218C140.965 49.1985 134.778 45.7557 127.663 44.7749C122.921 44.1212 117.159 45.337 113.211 48.0393C113.423 46.1328 113.822 44.6231 114.861 42.9777L114.973 42.7982C115.885 41.3571 117.04 40.1749 118.391 39.1442C116.465 39.6394 115.105 40.2684 113.451 41.3712C115.09 38.7031 117.239 36.7381 119.675 34.8172C124.374 31.1106 129.219 28.5683 134.869 26.6169C131.56 27.0358 128.166 27.5944 124.954 28.5089C123.048 29.0515 121.203 29.8091 119.386 30.5946C114.129 32.8687 109.122 35.9956 105.567 40.5716C103.369 43.3997 102.409 46.926 101.8 50.3872C100.53 44.6003 101.022 37.3742 104.269 32.317C105.48 30.4319 106.91 28.728 108.579 27.2305C109.415 26.4805 110.343 25.8387 111.159 25.0645C105.686 26.8742 99.1404 30.3376 96.4305 35.6952C95.2179 38.0924 94.5743 40.4311 94.2247 43.0773C93.9461 45.183 94.2873 47.2424 94.5143 49.3289L95.7828 53.4634L94.6071 51.8362C92.3905 48.6933 90.8999 44.5648 90.2766 40.7888C90.0293 39.2885 89.8611 37.4769 90.1427 35.9718C90.3065 35.0973 90.4768 34.2801 90.8847 33.4775L90.9853 33.2842C91.1207 33.0184 91.2503 32.7752 91.435 32.5385C92.0908 31.6977 93.4322 30.4368 94.4964 30.3015C97.3689 27.061 101.164 24.9975 105.154 23.4384C108.247 22.2297 111.365 21.2313 114.636 20.6128C117.472 20.0767 120.354 19.8772 123.23 19.7126C127.131 19.4897 130.836 19.7451 134.721 19.0662C141.25 17.9249 147.543 15.231 153.484 12.3493Z" fill="#29293A"/>
<path d="M182.548 42.4429C181.77 42.4817 180.969 42.1807 180.225 41.9755C178.239 41.4277 176.313 40.6905 174.484 39.7415C170.856 37.8597 167.645 35.5077 163.768 34.0918C162.239 33.5338 160.691 33.0291 159.087 32.7425C157.122 32.3914 155.083 32.274 153.14 31.8502C154.23 31.6729 155.376 31.7572 156.479 31.7699C159.551 31.8057 162.558 32.1406 165.614 32.4104C167.206 32.8757 168.721 33.3863 170.202 34.1487C172.951 35.5644 175.401 37.5362 177.872 39.3784C179.359 40.4866 180.829 41.7143 182.548 42.4429Z" fill="#628FAB"/>
<path d="M170.467 15.3475C170.518 15.8354 170.192 16.1657 169.894 16.5375C168.969 17.6898 167.899 18.9314 166.618 19.6922C163.785 21.375 160.434 22.1461 157.252 22.8617L148.915 24.6844L141.674 26.4262C143.151 25.308 145.226 24.6502 146.897 23.8308C147.453 23.5577 148.089 23.3012 148.56 22.8994C151.688 21.5331 154.93 20.4664 158.211 19.5298C162.411 18.331 166.535 17.3091 170.467 15.3475Z" fill="#132847"/>
<path d="M128.541 35.6473C130.135 35.4331 131.996 35.5885 133.598 35.7137C142.244 36.3903 150.204 39.6129 158.268 42.541C160.648 43.4054 163.258 44.0549 165.522 45.1706C163.472 45.3832 161.535 45.224 159.502 44.989C150.738 43.5803 142.41 40.5714 133.802 38.5069C131.482 37.9502 129.114 37.444 126.744 37.159C125.174 36.97 123.547 36.973 121.995 36.6961C124.125 36.0353 126.326 35.8162 128.541 35.6473Z" fill="#628FAB"/>
<path d="M153.484 12.3492C153.009 13.4963 146.405 16.458 144.96 17.1922C143.13 18.1214 141.36 19.1586 139.464 19.9498C135.78 21.487 131.801 22.5165 127.991 23.7223C120.555 26.0759 112.245 29.4379 106.672 35.0556C105.689 36.0471 104.857 37.19 104.039 38.3196C106.759 30.8039 113.004 25.4034 120.067 22.0884L121.113 21.6025C115.831 21.571 110.434 23.2679 105.591 25.2803C102.487 26.5702 99.3881 28.0263 96.9597 30.4143C94.5153 32.8183 93.4589 35.3224 93.0076 38.677C92.607 41.6542 92.9121 44.9745 93.6655 47.8693C92.7841 46.6222 92.3626 44.1464 92.0985 42.5984C91.6575 40.0184 91.3562 36.9739 92.1967 34.443C92.7017 32.9227 93.5739 31.5951 94.4965 30.3015C97.369 27.061 101.164 24.9975 105.154 23.4384C108.247 22.2296 111.365 21.2313 114.636 20.6128C117.472 20.0767 120.354 19.8771 123.23 19.7126C127.131 19.4897 130.837 19.7451 134.721 19.0661C141.251 17.9249 147.543 15.2309 153.484 12.3492Z" fill="url(#paint3_linear_232_283)"/>
<path d="M19.8982 154.87C19.3978 152.667 19.1689 150.419 18.8725 148.184C16.8216 132.723 18.1236 116.376 23.1291 101.566C29.2865 83.3481 39.8545 67.0236 54.4788 54.4588L58.8795 50.8929C59.86 50.0925 60.7753 49.1226 61.9155 48.5588C60.2996 52.6188 58.9981 56.3728 58.2308 60.6876C57.9848 62.0718 57.6941 63.5474 57.6962 64.9574C57.6973 65.6573 57.9078 66.2457 58.1606 66.885C58.217 67.0279 58.4711 67.5507 58.4684 67.6925C58.4659 67.8113 57.5845 68.8267 57.4557 69.0228C57.2222 69.378 57.1031 69.7492 57.0209 70.1638C56.4598 72.9967 56.421 76.1543 56.4316 79.0407C56.4392 81.1155 56.4769 83.2454 56.734 85.3064L57.057 87.2424C57.0933 87.4113 57.2512 87.8932 57.2325 88.0379C57.2129 88.1895 55.7264 89.5941 55.4951 89.8782C53.103 92.8207 50.7049 95.9791 48.8745 99.3058C48.6632 99.6898 48.1178 100.548 48.1081 100.978C48.1024 101.223 48.2825 101.693 48.3438 101.946L48.9456 104.477L51.7762 116.422C52.4401 119.109 52.9874 121.854 54.0932 124.401C55.715 128.137 58.7119 132.061 62.6087 133.598L64.5709 134.213L19.8982 154.87Z" fill="#0CBCB1"/>
<path d="M195.214 111.138C195.336 111.301 195.264 111.217 195.435 111.382L223.153 102.852L226.021 113.646C227.849 122.385 228.689 131.487 228.21 140.419C227.967 144.945 227.321 149.525 226.584 153.994C226.278 155.85 225.708 157.649 225.382 159.483C223.093 168.144 220.091 176.272 215.868 184.201C214.328 187.092 212.384 189.803 210.918 192.717C205.491 189.664 199.742 187.103 193.768 185.338L194.517 184.062C194.702 183.643 194.271 182.664 194.091 182.241C192.024 177.375 188.022 172.862 183.823 169.723C182.887 169.022 181.866 168.213 180.767 167.791C180.538 167.703 180.54 167.35 180.483 167.118C180.221 166.051 180.016 165.019 179.639 163.98C178.825 161.733 177.601 159.731 176.226 157.792C171.95 152.384 165.469 148.443 159.336 145.479L155.446 143.767L159.708 137.938L160.698 136.382C160.748 136.296 160.944 135.898 160.998 135.855C161.137 135.746 162.952 136.067 163.233 136.101C164.505 136.252 165.889 136.479 167.165 136.41C169.006 136.311 170.902 135.139 172 133.677C172.125 133.511 172.551 132.753 172.682 132.682C172.912 132.559 176.882 133.961 177.636 134.03C178.387 134.099 179.301 133.767 180.018 133.569L184.285 132.287L186.848 131.057C190.963 128.527 192.466 122.389 193.576 118.018L195.214 111.138Z" fill="#0CBCB1"/>
<path d="M195.214 111.138C195.336 111.301 195.264 111.217 195.435 111.382L223.153 102.852L226.021 113.646L200.163 125.98C196.382 127.807 192.627 129.939 188.749 131.529C187.539 132.025 185.965 132.79 184.654 132.567L184.285 132.287L186.848 131.057C190.964 128.527 192.466 122.389 193.576 118.018L195.214 111.138Z" fill="#049892"/>
<path d="M176.226 157.792L201.679 135.989L218.597 152.619L223.478 157.359C224.078 157.957 225.065 158.714 225.382 159.484C223.093 168.145 220.09 176.273 215.868 184.201C214.328 187.093 212.384 189.803 210.917 192.717C205.491 189.665 199.742 187.103 193.768 185.338L194.517 184.062C194.702 183.643 194.271 182.664 194.091 182.241C192.024 177.375 188.022 172.863 183.823 169.723C182.887 169.023 181.865 168.213 180.766 167.791C180.538 167.703 180.54 167.35 180.483 167.118C180.221 166.051 180.016 165.02 179.639 163.98C178.825 161.733 177.601 159.732 176.226 157.792Z" fill="#049892"/>
<path d="M84.403 81.1252C85.1488 80.4785 85.8287 79.655 86.5203 78.9432C86.6939 78.7648 87.1946 78.3586 87.2873 78.1547C87.3451 78.0275 87.3125 77.501 87.319 77.3372L87.4506 74.4405L88.2618 62.6507L98.6137 56.9448L102.743 58.6561C103.104 57.552 103.753 56.5826 104.405 55.6309C115.819 61.851 127.985 66.8019 141.048 68.0053C147.163 68.5688 153.345 68.2499 159.396 67.2447L159.334 73.0967C159.321 74.2217 159.392 75.4071 159.232 76.517C159.565 77.5197 160.202 78.3578 160.789 79.2238L163.466 82.9362C163.854 83.4218 164.428 83.921 164.751 84.4321C164.878 84.6317 164.927 85.3217 164.975 85.5728C165.311 87.3488 165.481 89.1815 165.865 90.9421C166.48 96.2382 166.764 101.756 166.09 107.067C165.77 109.591 165.093 112.096 164.521 114.574L162.107 124.987L160.699 130.736C160.481 131.632 160.325 132.718 159.947 133.556C159.617 134.288 158.953 135.018 158.482 135.682L154.92 140.554C149.783 147.048 143.694 152.782 137.181 157.882C135.767 158.988 134.223 160.326 132.581 161.058C131.416 161.576 130.024 161.708 128.77 161.851C125.825 162.187 122.782 162.108 119.826 162.007C118.639 161.966 117.342 162.01 116.173 161.84C116.506 161.824 117.011 161.895 117.258 161.676L104.62 149.185L94.8566 139.531C92.8312 137.349 90.7773 135.079 89.3306 132.459C86.9703 128.183 86.411 122.902 85.5879 118.154C84.8182 113.714 84.0157 109.109 83.7257 104.611C83.5622 102.071 83.5863 99.5121 83.6474 96.969C83.6761 95.7759 83.5877 94.2661 83.9137 93.1224C84.1694 90.8429 83.9858 88.3315 83.9804 86.0321C83.9774 84.8651 84.2343 82.924 83.8033 81.8559L84.403 81.1252Z" fill="#F8CEAB"/>
<path d="M89.5342 105.169C90.2087 105.72 90.8704 106.225 91.6732 106.58C94.6734 109.25 98.1891 110.301 102.189 110.04C103.485 109.956 104.678 109.68 105.91 109.283L105.802 109.505L103.697 110.389C100.409 111.375 96.5719 110.697 93.5736 109.136C92.1728 108.407 90.0194 106.727 89.5342 105.169Z" fill="#E2956A"/>
<path d="M156.155 106.141C155.615 107.657 153.481 108.808 152.095 109.463C150.73 110.108 149.171 110.41 147.687 110.62C145.078 110.99 141.069 110.536 138.951 108.877L138.661 108.603L141.293 109.421C145.567 110.306 149.833 109.662 153.499 107.264C154.366 107.306 155.419 106.554 156.155 106.141Z" fill="#E2956A"/>
<path d="M128.069 143.017C128.226 142.962 128.352 143.006 128.513 143.031C127.365 144.038 126.163 145.107 124.707 145.643L124.513 145.712L124.145 145.842C122.293 146.374 120.405 145.442 118.836 144.563C118.12 144.14 117.424 143.648 116.812 143.084C120.606 143.545 124.286 143.599 128.069 143.017Z" fill="#E96426"/>
<path d="M109.045 136.66C109.673 136.64 110.652 137.362 111.34 137.57C114.299 138.467 117.697 138.452 120.772 138.518C124.879 138.607 129.519 138.753 133.537 137.847C134.617 137.603 135.419 137.155 136.378 136.636C136.826 136.7 136.813 136.725 137.116 137.067L137.047 137.609C136.285 138.375 134.571 138.435 133.543 138.579C130.746 138.97 127.919 139.286 125.094 139.376C120.703 139.516 116.227 139.181 111.889 138.495C111.12 138.373 109.292 138.192 108.765 137.618C108.564 137.399 108.667 137.211 108.69 136.931L109.045 136.66Z" fill="#04040A"/>
<path d="M115.428 124.819C118.599 124.794 120.966 127.625 124.106 126.818C125.383 126.49 126.602 125.742 127.861 125.291C128.565 125.039 129.295 124.797 130.055 124.925C130.344 124.974 130.6 125.128 130.772 125.367C131.046 125.747 130.928 126.24 130.837 126.682C130.7 127.352 130.147 127.777 129.61 128.13C127.305 129.412 125.475 130.813 122.712 130.889C120.342 130.955 117.475 129.739 115.779 128.064C115.025 127.32 114.481 126.563 114.48 125.475C114.702 125.102 115.05 124.991 115.428 124.819Z" fill="#E2956A"/>
<path d="M115.877 126.221C116.079 126.167 116.27 126.135 116.48 126.139C117.775 126.164 118.84 126.916 119.73 127.785L119.563 128.08C118.759 128.309 117.722 128.18 116.965 127.837C116.357 127.56 115.889 127.194 115.653 126.562L115.877 126.221Z" fill="#04040A"/>
<path d="M128.483 126.187C128.958 126.179 129.452 126.087 129.869 126.318C129.936 126.63 129.834 126.916 129.648 127.17C129.02 128.026 128.082 128.025 127.121 128.16L125.428 128.286C126.389 127.318 127.174 126.659 128.483 126.187Z" fill="#04040A"/>
<path d="M148.326 114.138C149.728 114.066 151.03 114.055 152.325 114.701C153.239 115.157 154.188 115.975 154.461 117.002C154.685 117.845 154.267 118.737 153.821 119.427C152.845 120.939 151.416 121.558 149.721 121.945C148.191 122.097 146.791 121.785 145.464 120.988C144.565 120.447 143.609 119.576 143.404 118.493C143.24 117.627 143.396 116.841 143.94 116.146C145.039 114.741 146.646 114.344 148.326 114.138Z" fill="#F3513C"/>
<path d="M95.9355 113.981C97.6249 113.929 99.0829 113.987 100.693 114.566C101.691 114.925 102.799 115.606 103.232 116.619C103.521 117.295 103.413 118.292 103.105 118.95C102.323 120.621 100.783 121.391 99.1437 121.986C97.2623 122.306 95.5281 122.059 93.906 121.017C92.9991 120.435 91.7667 119.329 91.5809 118.222C91.451 117.447 91.579 116.777 92.0214 116.121C92.9383 114.76 94.4159 114.307 95.9355 113.981Z" fill="#F3513C"/>
<path d="M121.662 103.715C122.195 103.612 122.764 103.616 123.307 103.584L124.802 123.037L119.871 122.629L116.014 122.186L120.834 105.274C121.008 104.677 121.118 104.015 121.662 103.715Z" fill="#FEDFC8"/>
<path d="M135.506 93.1261C140.759 91.2292 146.021 89.0114 151.601 88.2679C153.294 88.0423 155.059 87.8843 156.758 88.1372L156.99 88.1733C158.585 88.3965 159.804 88.9203 161.098 89.8824C161.801 90.4051 162.431 91.0223 163.162 91.5055L163.255 91.5651C163.651 92.1595 163.808 93.0564 164.012 93.7452C162.469 93.079 160.937 92.3905 159.296 91.999C155.475 91.0871 150.687 91.5239 146.94 92.5982L146.684 92.8428C147.914 92.9306 149.2 92.766 150.413 92.9575C150.915 93.0367 151.353 93.0833 151.836 93.2761C151.529 93.48 151.249 93.4089 150.888 93.4078L150.685 93.2747L147.429 93.2875L146.797 93.2761L146.735 93.1389C143.357 93.234 140.384 95.0407 138.129 97.432L137.257 98.3946C136.403 98.6446 135.887 99.3368 135.288 99.9556L133.087 102.144L132.958 94.1161L133.09 94.1744C133.397 94.256 135.138 93.2999 135.506 93.1261Z" fill="#E2956A"/>
<path d="M132.958 94.116L133.055 90.1122C138.053 87.5737 143.277 85.4512 148.718 84.0802C151.049 83.4932 154.017 82.7782 156.387 83.5068L156.584 83.571L157.06 83.7215C160.061 84.7698 161.931 88.9037 163.255 91.565L163.162 91.5054C162.431 91.0222 161.801 90.4051 161.098 89.8823C159.804 88.9203 158.585 88.3964 156.99 88.1732L156.758 88.1372C155.059 87.8842 153.294 88.0423 151.601 88.2679C146.021 89.0114 140.759 91.2291 135.506 93.1261C135.138 93.2999 133.397 94.2559 133.09 94.1743L132.958 94.116Z" fill="#040723"/>
<path d="M133.09 94.1744L133.124 92.8756C133.617 92.9293 134.137 92.9588 134.617 93.0855L134.819 93.1419C135.117 92.99 135.188 93.0665 135.506 93.1261C135.138 93.3 133.397 94.256 133.09 94.1744Z" fill="#04040A"/>
<path d="M92.2214 95.397C95.3306 93.7097 98.8365 93.1039 102.28 94.1188C105.099 94.9494 106.948 96.2856 108.832 98.5158C110.046 100.321 111.168 102.202 111.517 104.385L111.273 104.309C109.782 106.51 108.295 108.055 105.91 109.283C104.678 109.68 103.485 109.956 102.189 110.04C98.1894 110.301 94.6737 109.25 91.6735 106.58C90.8708 106.225 90.209 105.72 89.5345 105.169C88.7919 104.127 88.1671 103.062 87.6504 101.891C88.3048 99.1191 90.0118 97.1006 92.2214 95.397Z" fill="#04040A"/>
<path d="M105.992 100.868C106.075 101.068 106.066 101.301 106.068 101.516C106.081 102.905 105.591 104.061 104.612 105.036C103.684 105.96 102.389 106.675 101.053 106.619C99.2826 106.544 97.8628 105.508 96.7264 104.25C96.4829 103.853 96.0931 103.323 96.1002 102.834C96.1059 102.423 96.2098 102.289 96.51 102.034C96.7324 102.032 97.1205 101.973 97.3236 102.026C97.7578 102.14 98.3152 102.836 98.6797 103.116C99.579 103.809 100.725 104.065 101.845 103.866C103.707 103.536 104.922 102.334 105.992 100.868Z" fill="#724E4D"/>
<path d="M91.6733 106.58C90.9701 105.659 90.3289 104.737 89.9693 103.621C89.6528 102.639 90.1111 101.432 90.5538 100.55C91.9906 97.6866 94.1953 96.2986 97.164 95.313C97.1486 95.7417 95.5091 96.6229 95.4586 97.3989C96.1345 97.3908 97.2611 97.2406 97.8792 97.5012C98.3018 97.6793 98.6492 98.1668 98.8027 98.5855C99.0064 99.1413 99.018 100.001 98.7238 100.529C98.4151 101.084 97.9069 101.391 97.2958 101.517C96.3786 101.707 95.6561 101.261 94.9268 100.781L95.089 102.766C95.3925 104.319 96.4624 105.843 97.8011 106.695C99.244 107.614 100.873 107.797 102.516 107.39C104.134 106.99 105.588 105.778 106.408 104.329C107.582 102.256 107.374 100.347 106.751 98.14C108.586 100.088 110.008 101.946 111.273 104.309C109.781 106.51 108.295 108.055 105.91 109.283C104.678 109.68 103.485 109.956 102.189 110.04C98.1892 110.301 94.6735 109.25 91.6733 106.58Z" fill="#FEFEFE"/>
<path d="M137.257 98.3945L138.129 97.4319C140.384 95.0406 143.357 93.234 146.735 93.1388L146.797 93.276L147.429 93.2874C150.831 93.4571 154.044 94.7904 156.348 97.3525C157.508 98.6415 158.726 100.785 158.67 102.557C158.631 103.784 157.57 104.966 156.677 105.722L156.155 106.141C155.418 106.554 154.366 107.306 153.499 107.264C149.833 109.662 145.567 110.306 141.293 109.421L138.661 108.603C138.46 108.45 138.267 108.307 138.049 108.181C136.541 107.313 135.096 105.972 134.25 104.443L134.19 104.241C134.157 103.868 134.451 103.298 134.596 102.958C135.303 101.297 136.237 99.8758 137.257 98.3945Z" fill="#04040A"/>
<path d="M140.629 98.1567L140.973 98.1128C141.624 98.0521 142.039 98.2695 142.521 98.6952C142.976 99.096 143.043 99.3476 143.071 99.9192C142.806 100.464 142.543 100.773 142.074 101.156C141.731 101.362 141.293 101.413 140.903 101.314C140.528 101.218 140.141 100.959 139.948 100.62C139.68 100.149 139.6 99.3395 139.806 98.8346C139.964 98.449 140.277 98.3224 140.629 98.1567Z" fill="#FEFEFE"/>
<path d="M148.566 101.139C148.802 101.098 148.876 101.208 149.076 101.326C149.205 101.527 149.291 101.675 149.316 101.917C149.403 102.744 148.964 103.713 148.441 104.332C147.639 105.283 146.433 106.012 145.171 106.092C143.732 106.184 142.718 105.786 141.624 104.849C141.288 104.505 140.942 104.118 140.743 103.675C140.591 103.336 140.527 103.114 140.635 102.766C142.303 102.721 143.503 104.063 145.261 103.758C146.767 103.497 147.73 102.307 148.566 101.139Z" fill="#724E4D"/>
<path d="M134.25 104.443C135.744 101.791 137.614 99.0442 140.149 97.3191C139.817 97.9015 139.367 98.3967 139.079 99.0054C138.564 100.092 138.624 101.759 138.929 102.907C139.353 104.498 140.576 105.946 142.024 106.701C143.476 107.458 145.06 107.591 146.6 107.043C148.216 106.467 149.509 105.257 150.188 103.683C150.783 102.303 150.904 100.611 150.45 99.1735L150.374 98.9265C149.832 97.2375 148.794 96.234 147.479 95.1019C150.584 95.824 153.362 96.7489 155.142 99.6155C155.87 100.788 156.541 102.411 156.153 103.8C155.796 105.078 154.439 106.361 153.5 107.264C149.834 109.662 145.567 110.306 141.293 109.421L138.661 108.603C138.461 108.45 138.268 108.307 138.049 108.181C136.541 107.313 135.096 105.972 134.25 104.443Z" fill="#FEFEFE"/>
<path d="M84.4029 81.1252C85.1487 80.4785 85.8286 79.655 86.5202 78.9432C86.6938 78.7648 87.1945 78.3586 87.2872 78.1547C87.345 78.0275 87.3124 77.501 87.3189 77.3372L87.4505 74.4405L88.2617 62.6507L98.6136 56.9448L102.743 58.6561C103.104 57.552 103.753 56.5826 104.405 55.6309C115.819 61.851 127.985 66.8019 141.048 68.0053C147.163 68.5688 153.345 68.2499 159.396 67.2447L159.334 73.0967C159.321 74.2217 159.392 75.4071 159.232 76.517L159.222 76.3887L159.213 71.7794C146.737 75.3025 132.918 70.9768 121.504 65.8613L110.063 60.1463L107.011 58.3093C106.357 57.9031 105.649 57.3258 104.85 57.4091C104.085 57.947 103.515 59.7 102.816 59.9739C102.608 60.0555 102.133 59.9958 101.919 59.9587C101.247 59.8424 100.315 59.4991 99.6472 59.5433C98.7796 59.601 95.7629 61.8049 94.9392 62.3651C94.5527 62.6279 94.1852 62.9004 93.8549 63.232L92.715 83.2266C93.4174 83.181 94.0626 83.1146 94.755 83.2821C95.8475 83.4071 96.9074 83.5679 97.9733 83.8421C98.1859 83.8968 98.6079 83.9543 98.7798 84.0753C102.659 84.9378 106.574 86.7304 110.127 88.4931C111.055 88.954 112.367 89.4947 113.104 90.2323C113.185 90.3204 113.298 90.3876 113.347 90.4969C113.404 90.6235 113.352 91.158 113.352 91.3125L113.362 94.4744L113.344 94.6184L112.813 102.399C112.269 101.694 109.819 98.6815 109.041 98.5256L108.832 98.5159C106.948 96.2857 105.099 94.9494 102.28 94.1189C98.8365 93.104 95.3306 93.7097 92.2214 95.3971C92.1425 95.2545 92.1799 95.3562 92.2387 95.0731C92.7573 94.7694 93.2333 94.4825 93.8066 94.2895L94.2728 94.1241L94.409 94.0557L94.8153 93.9554C95.1082 93.8201 95.0344 93.8198 95.3577 93.8198C95.6354 93.6346 95.7127 93.6843 96.0357 93.6843L96.2391 93.5487C96.4889 93.553 96.7221 93.566 96.9684 93.5167C97.302 93.4492 97.5976 93.4473 97.9342 93.4462H98.341C98.6627 93.4757 98.9485 93.3947 99.2648 93.4256C99.5414 93.4527 99.3109 93.4484 99.6249 93.4484L99.8327 93.4462H100.24L100.511 93.4131L100.714 93.5812C101.178 93.5387 101.555 93.6287 102.002 93.7512L103.087 94.091L103.325 94.158L104.036 94.4291L104.308 94.4977L104.85 94.7689L105.054 94.9044C105.331 95.0527 105.63 95.2735 105.909 95.3854L106.071 95.4467L106.273 95.6148L106.613 95.8535C106.844 96.0465 107.034 96.223 107.291 96.3958C107.475 96.5197 107.556 96.5875 107.691 96.7697C107.987 97.1702 108.391 97.4974 108.646 97.9223L108.714 98.0552L109.122 98.0891L109.19 98.2924L109.393 98.2938L111.363 100.281C111.516 100.458 111.634 100.602 111.819 100.75C112.015 100.908 111.957 100.823 112.071 101.072C112.214 101.387 112.381 101.51 112.681 101.682L112.749 101.208L112.851 101.004C112.802 100.693 112.787 100.152 112.885 99.8521L112.986 99.6482C112.933 99.2729 112.894 98.6544 112.986 98.2924C113.149 97.6536 112.983 97.0997 113.087 96.4671C113.16 96.0213 113.222 95.2434 113.054 94.8236C112.994 94.6731 112.994 94.7016 112.851 94.6306L112.445 94.4278L112.308 94.3261C112.063 94.1845 111.625 93.9839 111.352 93.9147C111.17 93.8689 111.019 93.8038 110.851 93.7168C110.505 93.5373 110.223 93.3963 109.843 93.3006L109.732 93.2748L109.596 93.1406L109.393 93.1392C109.217 93.0077 109.068 92.9058 108.864 92.8201L107.563 92.2588C107.277 92.1642 107.01 92.0761 106.749 91.9191C106.469 91.7512 106.188 91.7238 105.92 91.5571L105.799 91.4793L105.562 91.4454L105.325 91.3103C105.141 91.2339 104.985 91.2431 104.787 91.1441C104.457 90.9793 103.978 90.751 103.626 90.6618C103.339 90.5891 103.007 90.4787 102.731 90.3684L102.003 90.0896L101.731 90.021C101.379 89.8385 101.686 89.9107 101.338 89.8529C101.062 89.8071 101.178 89.8415 100.913 89.7534L100.714 89.6834L100.375 89.5812C100.015 89.4302 99.5927 89.4557 99.2691 89.2545L99.1547 89.1745C98.8523 89.2238 98.7131 89.0395 98.341 89.072L98.1715 88.9039C97.8604 88.9465 97.9092 88.921 97.663 88.7678C97.375 88.8147 97.2548 88.7279 96.985 88.6322L96.7815 88.6653C96.4726 88.5308 96.3142 88.4353 95.9679 88.4839C95.5931 88.5362 95.4214 88.3282 94.9509 88.3941L94.8492 88.3117C94.5668 88.136 94.1516 88.1794 93.8321 88.2233L93.5948 88.2586L93.4592 88.1243C92.9149 88.1192 92.2146 88.0311 91.6958 88.1916C91.4538 88.2661 91.5561 88.2697 91.3361 88.2483L90.7471 88.1921C90.5418 88.3291 90.4542 88.3792 90.2046 88.361L90.0012 88.3277L89.73 88.5297L89.4588 88.4633L88.7124 88.7339C88.4868 88.7675 88.384 88.7488 88.1706 88.87L87.9671 89.0056C87.4936 89.1745 87.2598 89.3022 86.8139 89.5473C86.6051 89.6618 86.4885 89.7008 86.3057 89.8648C86.0819 90.0658 86.2026 89.9774 85.9708 90.1403C85.7112 90.3228 85.4554 90.4923 85.2295 90.7179L85.1194 90.8345H84.7126C84.6136 90.562 84.6646 90.3697 84.714 90.0902C84.8854 89.8833 84.8642 89.9494 84.9391 89.7501L85.1878 89.1417C85.3491 88.8727 85.245 89.1525 85.3906 88.8036C85.6236 88.2453 85.993 87.6585 86.3578 87.171C86.9219 86.4177 87.5036 85.8361 88.1263 85.1406C88.2641 84.9869 88.3612 84.8741 88.5418 84.7656C88.8177 84.5999 88.6265 84.7423 88.9188 84.4988C89.049 84.3903 89.2576 84.1829 89.4249 84.1254C89.7539 84.0129 90.0539 83.905 90.3403 83.6848C90.5635 83.5134 90.6022 83.466 90.8832 83.4476C91.2274 83.425 91.3106 83.245 91.6963 83.245C91.9808 83.0555 92.1454 83.1092 92.476 83.1086L92.51 82.3624C92.8774 81.8112 92.4758 80.5568 92.6456 79.8543C92.7535 79.4082 92.6743 79.1412 92.7437 78.7152C92.8202 78.248 92.6871 77.7206 92.7812 77.2784C92.8869 76.7819 92.8888 77.2539 92.8896 76.8865L93.0524 72.1265C93.2224 71.3282 93.0602 70.5593 93.2192 69.7659C93.3502 69.1108 93.431 68.1913 93.4592 67.517C93.4736 67.1767 93.3605 66.7713 93.4592 66.4324C93.5755 66.033 93.527 65.8179 93.5614 65.4156C93.5964 65.0091 93.4863 64.3505 93.5948 63.992C93.697 63.6542 93.7201 63.4657 93.7304 63.1108C94.2419 62.2819 95.5589 61.8451 96.3069 61.2127L96.4431 61.0777L96.6459 61.0772C96.8732 60.7396 97.2464 60.6837 97.5404 60.3912L97.6635 60.2643L97.8664 60.2637C98.0375 60.1173 98.1783 59.9999 98.3855 59.9058L99.019 59.5858C99.3122 59.4069 100.232 59.3494 100.579 59.4503C100.827 59.5227 101.021 59.5246 101.257 59.5858C101.516 59.6531 101.834 59.6813 102.076 59.7724L102.205 59.8231C102.559 59.9061 102.68 59.7843 102.986 59.6197L103.087 59.3825C103.403 58.9093 103.148 59.4687 103.329 59.0631C103.503 58.6718 103.771 58.4009 103.969 58.0281L104.07 57.8239C104.294 57.5248 104.704 57.2602 105.054 57.1455L105.393 57.2133C105.669 57.2385 105.696 57.2743 105.935 57.4166L106.004 57.2811C106.155 57.0799 106.317 57.1162 106.545 57.0791L106.206 56.9408C106.01 56.8144 105.947 56.7282 105.732 56.6371L104.685 56.1279C104.518 56.0652 104.589 56.0891 104.374 56.1965L104.103 56.6032L103.969 56.7388C103.967 57.0292 103.749 57.3264 103.56 57.5522C103.383 57.7651 103.418 57.8798 103.289 58.0945C103.127 58.3665 103.232 58.5585 103.019 58.7724C102.344 58.911 101.616 58.5807 101.015 58.2797C100.644 58.094 100.248 57.8627 99.8397 57.7794L99.6971 57.7542L99.1547 57.4831L98.9526 57.3489C98.6949 57.3212 98.4349 57.2588 98.2054 57.4166L98.0359 57.5517C97.769 57.5525 97.5995 57.7336 97.3918 57.8898L97.12 58.094L96.5442 58.3651C96.2787 58.4983 96.0162 58.607 95.7645 58.7724C95.5955 58.8833 95.5136 58.9709 95.3194 59.0484C95.147 59.1173 95.1242 59.1081 94.9509 59.2125C94.7355 59.3418 94.476 59.4476 94.2728 59.5858C94.0833 59.7149 93.9382 59.8177 93.7304 59.9234L93.3236 60.1281L93.1541 60.2632C92.8549 60.4256 92.5387 60.6637 92.2382 60.8055C91.2624 61.2656 90.1349 61.8649 89.2364 62.4657L88.8952 62.6734L88.4757 62.9069C88.518 63.2591 88.5305 63.0997 88.4453 63.4448C88.375 63.7296 88.3373 63.963 88.3373 64.2591L88.3395 64.8733L88.3726 65.8223C88.0252 66.2691 88.2419 66.8513 88.1706 67.3814C88.1019 67.8922 88.026 68.4221 88.0683 68.9405C88.0905 69.2176 88.1304 69.2822 88.0189 69.5506C87.9232 69.7816 87.924 69.7038 87.924 69.9362C87.924 70.3375 87.8657 70.7605 87.9305 71.1563L87.9658 71.3131C87.8009 71.7003 87.7632 72.0427 87.7971 72.4655C87.8264 72.835 87.7808 73.1835 87.7971 73.55C87.8096 73.8375 87.8644 73.88 87.7499 74.1558C87.4575 74.86 87.767 75.7051 87.6322 76.4543C87.5755 76.7689 87.5085 77.0734 87.5403 77.3949C87.5652 77.6498 87.5221 77.8874 87.5403 78.1468C87.5454 78.219 87.5752 78.2925 87.559 78.363C87.5221 78.5232 85.1794 80.6902 84.8515 81.133C84.6665 81.3825 84.5024 81.5495 84.2632 81.7453L84.1702 81.8201C84.1298 82.1371 84.1848 82.4196 84.1542 82.7309C84.1176 83.1067 84.1534 83.4785 84.1357 83.8537C84.1181 84.226 84.1468 84.5915 84.1211 84.9595L84.1024 85.2095C84.3104 85.5216 84.3768 91.2954 84.238 91.9204C84.1637 92.2553 84.1165 92.3727 84.1024 92.7339L84.4753 92.7678L84.7126 92.6661L85.0516 92.5305L86.3399 91.9839L86.5433 91.9204L87.323 91.6832C87.6704 91.5565 87.4364 91.5921 87.7342 91.5628L87.8993 91.5481C88.3281 91.4419 87.7844 91.4988 88.2785 91.4606L88.5096 91.4459C88.7143 91.4277 88.8638 91.4101 89.0731 91.4272L89.2554 91.4459C89.5377 91.2577 91.1173 91.216 91.4929 91.3103C91.8485 91.3996 91.9987 91.4231 92.3743 91.4126H92.9168C93.1728 91.4606 93.2859 91.5601 93.5821 91.5666L93.9338 91.5815C94.1782 91.6504 94.3797 91.6569 94.6118 91.7171C94.8443 91.7773 95.068 91.7952 95.2899 91.8526L96.0018 92.0221L96.2391 92.1238C96.5285 92.2374 96.6364 92.2941 96.8493 92.5305L96.6798 92.7678C96.1081 92.7903 95.4659 92.9229 94.9042 92.8391L94.6796 92.8017C94.5405 92.9527 94.441 93.0671 94.2492 93.1525L94.1033 93.2078C93.9238 93.2773 93.7762 93.2941 93.5943 93.3434L93.3914 93.4104L92.9846 93.546L92.849 93.6815H92.5778L92.4421 93.8171L92.1709 93.7236C91.7693 93.893 91.4487 94.0999 91.0861 94.3391C90.0132 95.046 88.9687 96.2854 88.1497 97.2664H88.0355L88.0173 97.0723C89.1816 95.3068 90.9174 93.7442 92.9547 93.0826L93.1508 93.0224C94.4027 92.6208 95.5679 92.7423 96.8439 92.5527C96.0005 92.1322 94.9297 91.9646 94.0016 91.8239C92.1842 91.5481 90.1971 91.3789 88.374 91.665L88.1706 91.6994C86.7158 91.9391 85.5604 92.7141 84.1816 93.0593L83.9136 93.1224C84.1694 90.8429 83.9857 88.3315 83.9803 86.0321C83.9773 84.8651 84.2342 82.924 83.8032 81.8559L84.4029 81.1252Z" fill="#E2956A"/>
<path d="M87.1917 86.5977C87.1893 86.8786 87.2286 86.8862 87.0607 87.121C86.7629 87.5372 86.8356 88.1901 86.9162 88.6671L87.0857 88.5456L87.6197 88.8007C86.5541 89.3224 85.6903 89.9483 84.7598 90.6793C85.492 89.2354 86.1329 87.8403 87.1917 86.5977Z" fill="#04040A"/>
<path d="M94.755 83.282C95.8474 83.407 96.9073 83.5678 97.9732 83.8419C98.1858 83.8967 98.6078 83.9541 98.7798 84.0751C102.659 84.9376 106.574 86.7302 110.126 88.4929C111.055 88.9539 112.367 89.4945 113.104 90.2321C113.185 90.3202 113.298 90.3874 113.347 90.4967C113.404 90.6233 113.351 91.1578 113.352 91.3123L113.362 94.4742C111.642 93.8676 109.956 92.9967 108.281 92.2676C103.131 90.026 96.8742 87.4596 91.1538 87.9466C89.9643 88.048 88.746 88.423 87.6197 88.8007L87.0856 88.5455L86.9161 88.667C86.8356 88.19 86.7629 87.5371 87.0607 87.1209C87.2286 86.8861 87.1892 86.8785 87.1917 86.5976C88.1577 85.2513 89.7077 84.0724 91.3035 83.6068L91.5495 83.5385C92.5923 83.2361 93.6777 83.2863 94.755 83.282Z" fill="#040723"/>
<path d="M98.7797 84.0751C102.659 84.9376 106.574 86.7302 110.126 88.4929C111.055 88.9539 112.367 89.4945 113.104 90.2321C112.777 90.388 112.514 90.212 112.173 90.1195C110.085 89.5528 108.029 88.2605 106.024 87.3853L101.934 85.6453C101.28 85.3663 100.551 85.138 99.931 84.7928C99.7308 84.6814 99.6023 84.6084 99.3766 84.5382C99.1352 84.4631 98.947 84.3804 98.7246 84.2624L98.7797 84.0751Z" fill="#04040A"/>
</g>
<defs>
<linearGradient id="paint0_linear_232_283" x1="99.694" y1="198.049" x2="85.0904" y2="215.55" gradientUnits="userSpaceOnUse">
<stop stop-color="#D60A07"/>
<stop offset="1" stop-color="#A01A1B"/>
</linearGradient>
<linearGradient id="paint1_linear_232_283" x1="86.3781" y1="212.86" x2="119.259" y2="164.523" gradientUnits="userSpaceOnUse">
<stop stop-color="#7ED2D5"/>
<stop offset="1" stop-color="#FFFDFB"/>
</linearGradient>
<linearGradient id="paint2_linear_232_283" x1="103.763" y1="177.6" x2="102.878" y2="180.461" gradientUnits="userSpaceOnUse">
<stop stop-color="#4E8981"/>
<stop offset="1" stop-color="#63A29C"/>
</linearGradient>
<linearGradient id="paint3_linear_232_283" x1="125.26" y1="8.01621" x2="114.935" y2="49.7766" gradientUnits="userSpaceOnUse">
<stop stop-color="#5C84A1"/>
<stop offset="1" stop-color="#82A5BB"/>
</linearGradient>
<clipPath id="clip0_232_283">
<rect width="247" height="258" fill="white"/>
</clipPath>
</defs>
</svg>
